<?xml version="1.0" encoding="UTF-8"?>
<svg version="1.1" xmlns="http://www.w3.org/2000/svg" width="739" height="733">
<path d="M0 0 C243.87 0 487.74 0 739 0 C739 241.89 739 483.78 739 733 C495.13 733 251.26 733 0 733 C0 491.11 0 249.22 0 0 Z " fill="#F0EFE9" transform="translate(0,0)"/>
<path d="M0 0 C243.87 0 487.74 0 739 0 C739 241.89 739 483.78 739 733 C495.13 733 251.26 733 0 733 C0 491.11 0 249.22 0 0 Z M25 32 C25 256.07 25 480.14 25 711 C249.07 711 473.14 711 704 711 C704 486.93 704 262.86 704 32 C479.93 32 255.86 32 25 32 Z " fill="#F0EFEA" transform="translate(0,0)"/>
<path d="M0 0 C224.07 0 448.14 0 679 0 C679 224.07 679 448.14 679 679 C454.93 679 230.86 679 0 679 C0 454.93 0 230.86 0 0 Z M16 16 C16 229.51 16 443.02 16 663 C229.51 663 443.02 663 663 663 C663 449.49 663 235.98 663 16 C449.49 16 235.98 16 16 16 Z " fill="#393837" transform="translate(25,32)"/>
<path d="M0 0 C1.76229698 -0.04249374 1.76229698 -0.04249374 3.56019592 -0.08584595 C6.7740321 -0.15350676 9.9860191 -0.1892254 13.20047522 -0.20514107 C15.21591208 -0.21682288 17.23104599 -0.23770188 19.24637222 -0.26164246 C26.29997379 -0.34433882 33.35267357 -0.38760113 40.40673828 -0.39746094 C46.9447768 -0.40772917 53.47728197 -0.50759877 60.01366794 -0.64941835 C65.65240358 -0.76738598 71.28933206 -0.81829793 76.92929089 -0.81974363 C80.28777735 -0.82185087 83.63637484 -0.85801159 86.99435043 -0.94691467 C108.89123317 -1.47931686 108.89123317 -1.47931686 116.34234619 4.6965332 C119.8470709 8.1382014 122.83362508 11.8480974 125.66186905 15.85762024 C127.86168065 18.85453906 130.36779762 21.52304738 132.92399406 24.21773529 C134.49830829 26.35901795 134.80842445 27.61493453 134.90673828 30.25195312 C134.2848397 34.04553449 133.70986527 36.11601321 131.28173828 39.06445312 C129.09423828 40.37695312 129.09423828 40.37695312 127.28173828 41.06445312 C127.28173828 41.72445312 127.28173828 42.38445312 127.28173828 43.06445312 C125.96173828 43.06445312 124.64173828 43.06445312 123.28173828 43.06445312 C123.28173828 66.49445313 123.28173828 89.92445313 123.28173828 114.06445312 C127.57173828 114.06445312 131.86173828 114.06445312 136.28173828 114.06445312 C136.28173828 118.68445313 136.28173828 123.30445313 136.28173828 128.06445312 C132.65173828 128.06445312 129.02173828 128.06445312 125.28173828 128.06445312 C125.28173828 146.54445313 125.28173828 165.02445313 125.28173828 184.06445312 C121.98173828 184.06445312 118.68173828 184.06445312 115.28173828 184.06445312 C114.95302734 182.92169922 114.95302734 182.92169922 114.61767578 181.75585938 C110.94808966 169.80732896 105.52426184 161.37532322 94.78173828 154.81445312 C85.07711833 149.96214315 72.70197281 149.14414117 62.17236328 151.86914062 C59.61072828 153.05206125 57.5289202 154.35914486 55.28173828 156.06445312 C54.41033203 156.71929687 53.53892578 157.37414062 52.64111328 158.04882812 C43.62219936 165.48547645 40.9356722 173.10265138 37.28173828 184.06445312 C19.46173828 184.06445312 1.64173828 184.06445312 -16.71826172 184.06445312 C-16.71826172 188.68445313 -16.71826172 193.30445313 -16.71826172 198.06445312 C-15.39826172 198.39445313 -14.07826172 198.72445312 -12.71826172 199.06445312 C-9.90603354 200.95463928 -7.25295783 202.99506091 -5.71826172 206.06445312 C-5.1675761 211.7915836 -6.15269197 214.58202258 -9.71826172 219.06445312 C-10.36408203 219.8765625 -10.36408203 219.8765625 -11.02294922 220.70507812 C-14.02280911 223.11049574 -17.28311029 222.58326819 -20.97998047 222.49023438 C-25.25076197 221.82616136 -26.88163187 220.27432374 -29.71826172 217.06445312 C-31.22440185 212.54603274 -31.97635776 207.58586553 -29.77685547 203.17773438 C-26.89330535 199.44448611 -25.49379852 199.01956049 -20.71826172 198.06445312 C-20.71826172 193.77445313 -20.71826172 189.48445312 -20.71826172 185.06445312 C-22.36826172 185.06445312 -24.01826172 185.06445312 -25.71826172 185.06445312 C-25.63016235 183.41799805 -25.63016235 183.41799805 -25.5402832 181.73828125 C-23.49401806 159.76320596 -23.49401806 159.76320596 -30.56982422 139.98242188 C-34.0721877 136.50125779 -37.9090232 133.62824717 -42.17358398 131.14135742 C-42.93819946 130.60828979 -42.93819946 130.60828979 -43.71826172 130.06445312 C-43.71826172 129.40445313 -43.71826172 128.74445313 -43.71826172 128.06445312 C-49.32826172 128.06445312 -54.93826172 128.06445312 -60.71826172 128.06445312 C-60.71826172 127.07445312 -60.71826172 126.08445312 -60.71826172 125.06445312 C-53.12826172 125.06445312 -45.53826172 125.06445312 -37.71826172 125.06445312 C-37.71826172 121.43445313 -37.71826172 117.80445313 -37.71826172 114.06445312 C-32.76826172 114.06445312 -27.81826172 114.06445312 -22.71826172 114.06445312 C-22.71826172 90.30445313 -22.71826172 66.54445313 -22.71826172 42.06445312 C-24.69826172 42.06445312 -26.67826172 42.06445312 -28.71826172 42.06445312 C-32.36322669 38.41948815 -33.52910053 35.4595169 -34.21826172 30.37695312 C-34.12515422 24.69739569 -30.52975841 21.88293058 -26.71826172 18.06445312 C-25.18910231 16.38449426 -23.66849048 14.69672213 -22.15576172 13.00195312 C-21.10195313 11.83986328 -21.10195313 11.83986328 -20.02685547 10.65429688 C-17.80107566 8.2919092 -17.80107566 8.2919092 -16.59228325 6.31771088 C-12.13520061 -0.08965242 -7.40480705 0.01034007 0 0 Z " fill="#686256" transform="translate(317.71826171875,273.935546875)"/>
<path d="M0 0 C2 0 2 0 4 1.9375 C4.99 2.9584375 4.99 2.9584375 6 4 C9.15982889 5.57991444 11.50055861 5.34420735 15 5 C17.6074206 3.55480176 19.67397621 1.89879493 22 0 C22.433125 0.474375 22.86625 0.94875 23.3125 1.4375 C26.41841918 4.31335109 29.89579352 4.32345502 33.9921875 4.30078125 C37.09451907 3.83603508 38.83552473 2.16447527 41 0 C43.17075592 0.97309748 44.7609078 1.7275461 46.34375 3.53125 C48.47371411 5.4200861 49.87906664 5.48399034 52.6875 5.6875 C53.49574219 5.75324219 54.30398438 5.81898438 55.13671875 5.88671875 C55.75160156 5.92410156 56.36648438 5.96148437 57 6 C57 5.34 57 4.68 57 4 C58.75 2.3125 58.75 2.3125 61 1 C63.32824044 1.21827254 64.80874514 1.89343215 66.84375 3.02734375 C70.46704962 4.66176695 74.1083334 4.61409785 78 4 C80.56990998 2.18735352 80.56990998 2.18735352 82 0 C84.17888089 0.97673971 85.76867556 1.7381858 87.36328125 3.54296875 C89.9816565 5.87388514 92.39521535 5.5255735 95.76953125 5.4375 C99.2586329 4.75312279 100.88641722 2.72720359 103 0 C105.17075592 0.97309748 106.7609078 1.7275461 108.34375 3.53125 C110.47371411 5.4200861 111.87906664 5.48399034 114.6875 5.6875 C115.49574219 5.75324219 116.30398438 5.81898438 117.13671875 5.88671875 C117.75160156 5.92410156 118.36648438 5.96148437 119 6 C119 5.34 119 4.68 119 4 C121.25 2.25 121.25 2.25 124 1 C126.0625 1.6875 126.0625 1.6875 128 3 C129.98 3.99 129.98 3.99 132 5 C132 28.76 132 52.52 132 77 C129.69 77 127.38 77 125 77 C125 72.71 125 68.42 125 64 C123.68 64 122.36 64 121 64 C120.98541748 63.2886792 120.97083496 62.5773584 120.95581055 61.84448242 C120.88138994 58.62493668 120.78471 55.40643482 120.6875 52.1875 C120.66494141 51.06794922 120.64238281 49.94839844 120.61914062 48.79492188 C120.58369141 47.72177734 120.54824219 46.64863281 120.51171875 45.54296875 C120.48553467 44.55321045 120.45935059 43.56345215 120.43237305 42.54370117 C119.93675188 39.6279039 119.1848208 38.88336721 117 37 C116.60921444 34.27492202 116.86383047 31.76878044 117 29 C113.7 29 110.4 29 107 29 C107.04125 30.381875 107.0825 31.76375 107.125 33.1875 C107.13673023 36.90598144 106.73319398 39.64193667 105 43 C104.01 43 103.02 43 102 43 C102 41.68 102 40.36 102 39 C102.66 39 103.32 39 104 39 C104 38.01 104 37.02 104 36 C101.03 36 98.06 36 95 36 C95 37.32 95 38.64 95 40 C95.99 40 96.98 40 98 40 C98 41.32 98 42.64 98 44 C96.80375 44.391875 95.6075 44.78375 94.375 45.1875 C88.91519433 47.2554618 85.31731405 49.86504274 82.1875 54.9375 C81.00514109 57.98674139 80.38580647 60.75922563 80 64 C77.69 64 75.38 64 73 64 C73 68.29 73 72.58 73 77 C69.7 77 66.4 77 63 77 C60.73370162 72.46740325 60.80604897 69.75075618 62 65 C62.95972242 62.63372083 64.00851312 60.35682102 65.16015625 58.078125 C66.24979571 55.75547002 66.24979571 55.75547002 66 52 C60.72 52 55.44 52 50 52 C49.2575 53.794375 48.515 55.58875 47.75 57.4375 C45.57506454 62.66106293 43.32187918 67.84026849 41 73 C45.62 73 50.24 73 55 73 C55 73.66 55 74.32 55 75 C53.2984375 75.2165625 53.2984375 75.2165625 51.5625 75.4375 C48.19222799 75.61171478 48.19222799 75.61171478 47 77 C42.66469082 77.14393457 38.33842269 77.04212061 34 77 C34.33 72.71 34.66 68.42 35 64 C30.05 64 25.1 64 20 64 C20 68.29 20 72.58 20 77 C18.35 77 16.7 77 15 77 C15.14139481 74.74971671 15.28828003 72.49977794 15.4375 70.25 C15.55931641 68.37054688 15.55931641 68.37054688 15.68359375 66.453125 C16 63 16 63 17 59 C11.06 59 5.12 59 -1 59 C-0.67 64.94 -0.34 70.88 0 77 C-2.31 77 -4.62 77 -7 77 C-7.13901003 67.68159989 -7.24562484 58.36355652 -7.31087303 49.04434586 C-7.34218905 44.71701695 -7.384665 40.39039725 -7.45263672 36.06347656 C-7.51782239 31.88778466 -7.55370401 27.71277488 -7.56926346 23.53661346 C-7.5803515 21.9433086 -7.60200486 20.35004116 -7.63438034 18.75702667 C-7.6779388 16.52502259 -7.6839352 14.29583717 -7.68115234 12.06347656 C-7.69447601 10.79328674 -7.70779968 9.52309692 -7.7215271 8.2144165 C-7 5 -7 5 -4.01992798 2.62103271 C-3.02335175 2.08609192 -2.02677551 1.55115112 -1 1 C-0.67 0.67 -0.34 0.34 0 0 Z " fill="#EEECE7" transform="translate(305,311)"/>
<path d="M0 0 C47.85 0 95.7 0 145 0 C145 17.49 145 34.98 145 53 C143.35 53 141.7 53 140 53 C139.85304688 52.39414062 139.70609375 51.78828125 139.5546875 51.1640625 C136.0892791 38.21857135 129.69964191 30.54954045 118.46484375 23.3828125 C109.22067667 18.19670292 98.17495881 17.39447824 87.91015625 19.69140625 C76.75797843 23.42965379 66.78041567 30.45793003 61.42578125 41.140625 C59.77937313 45.04671646 58.34001097 48.97996709 57 53 C38.19 53 19.38 53 0 53 C0 35.51 0 18.02 0 0 Z " fill="#E0BD8C" transform="translate(295,402)"/>
<path d="M0 0 C7.34359156 6.10260135 14.34380153 13.8208407 15.3125 23.75 C16.04486166 32.73973934 14.54554503 41.19897422 9.125 48.5625 C5.63111705 52.67295053 1.84560126 55.84846242 -2.6875 58.75 C-3.26757812 59.16378906 -3.84765625 59.57757813 -4.4453125 60.00390625 C-11.46572399 64.36507097 -20.59891898 63.81672803 -28.4453125 62.171875 C-30.60449122 61.48386551 -32.62592353 60.68708021 -34.6875 59.75 C-35.71875 59.3375 -36.75 58.925 -37.8125 58.5 C-45.75719806 53.66409683 -50.35907493 46.67595227 -53.30078125 37.92578125 C-54.96782924 28.54653147 -54.79571191 17.98627425 -49.6875 9.75 C-44.15266905 2.13348484 -37.41402401 -4.03488016 -27.94921875 -5.96875 C-17.37805977 -7.28329827 -8.66265162 -6.42479995 0 0 Z " fill="#5A564F" transform="translate(413.6875,434.25)"/>
<path d="M0 0 C1.02526291 -0.01533279 2.05052582 -0.03066559 3.1068573 -0.04646301 C6.48185342 -0.08802444 9.85500371 -0.08529318 13.23022461 -0.07836914 C15.58239929 -0.09003475 17.93456768 -0.10303974 20.28672791 -0.11732483 C25.21024086 -0.13968203 30.13310828 -0.13885829 35.05664062 -0.12304688 C41.36475562 -0.1056383 47.67023491 -0.15651868 53.97791386 -0.22608089 C58.83279343 -0.2702784 63.68703673 -0.27291112 68.54208183 -0.26355171 C70.86773347 -0.2650913 73.19342075 -0.28080447 75.51887703 -0.31098747 C78.77083974 -0.34802662 82.01765065 -0.32776525 85.26953125 -0.29296875 C86.22814056 -0.31589996 87.18674988 -0.33883118 88.17440796 -0.36245728 C92.1801777 -0.26774928 94.59244772 -0.18723639 97.45747185 2.77622795 C99.00106914 5.0675084 100.30502289 7.37013217 101.57006836 9.82397461 C102.32490552 11.02566462 103.09083741 12.22050217 103.87084961 13.40600586 C104.5347168 14.47206055 105.19858398 15.53811523 105.88256836 16.63647461 C106.55932617 17.71541992 107.23608398 18.79436523 107.93334961 19.90600586 C109.30732375 22.35554925 110.06956893 24.11042349 110.57006836 26.82397461 C111.00319336 27.96866211 111.00319336 27.96866211 111.44506836 29.13647461 C111.6141656 32.77206521 110.42987232 34.53567765 108.24975586 37.37475586 C105.27150547 39.94436259 102.40967754 39.75889649 98.57006836 39.82397461 C101.21006836 40.15397461 103.85006836 40.48397461 106.57006836 40.82397461 C106.57006836 41.15397461 106.57006836 41.48397461 106.57006836 41.82397461 C102.4970996 42.32270548 99.00231733 42.71134625 95.41381836 40.48803711 C93.70845052 38.99933485 92.10731798 37.48479735 90.57006836 35.82397461 C90.30194336 36.44272461 90.03381836 37.06147461 89.75756836 37.69897461 C88.57006836 39.82397461 88.57006836 39.82397461 85.57006836 41.82397461 C82.45616225 42.49420583 79.67659183 42.54777344 76.57006836 41.82397461 C74.08258857 39.79657746 72.31411589 37.50502022 70.57006836 34.82397461 C71.23006836 34.82397461 71.89006836 34.82397461 72.57006836 34.82397461 C72.57006836 32.51397461 72.57006836 30.20397461 72.57006836 27.82397461 C77.85006836 27.82397461 83.13006836 27.82397461 88.57006836 27.82397461 C88.57006836 26.83397461 88.57006836 25.84397461 88.57006836 24.82397461 C83.29006836 24.82397461 78.01006836 24.82397461 72.57006836 24.82397461 C71.58006836 22.18397461 70.59006836 19.54397461 69.57006836 16.82397461 C69.57006836 19.46397461 69.57006836 22.10397461 69.57006836 24.82397461 C63.63006836 24.82397461 57.69006836 24.82397461 51.57006836 24.82397461 C51.57006836 17.56397461 51.57006836 10.30397461 51.57006836 2.82397461 C45.30006836 2.82397461 39.03006836 2.82397461 32.57006836 2.82397461 C32.24006836 5.13397461 31.91006836 7.44397461 31.57006836 9.82397461 C31.33291349 11.14820095 31.08448153 12.47055339 30.81616211 13.78881836 C30.69684326 14.38041748 30.57752441 14.9720166 30.45458984 15.58154297 C30.30707275 16.30092041 30.15955566 17.02029785 30.00756836 17.76147461 C29.53319336 20.09209961 29.05881836 22.42272461 28.57006836 24.82397461 C22.96006836 24.82397461 17.35006836 24.82397461 11.57006836 24.82397461 C11.07506836 22.84397461 11.07506836 22.84397461 10.57006836 20.82397461 C9.91006836 20.82397461 9.25006836 20.82397461 8.57006836 20.82397461 C8.24006836 22.14397461 7.91006836 23.46397461 7.57006836 24.82397461 C1.96006836 24.82397461 -3.64993164 24.82397461 -9.42993164 24.82397461 C-9.75993164 24.16397461 -10.08993164 23.50397461 -10.42993164 22.82397461 C-11.08993164 22.82397461 -11.74993164 22.82397461 -12.42993164 22.82397461 C-12.42993164 23.48397461 -12.42993164 24.14397461 -12.42993164 24.82397461 C-19.42993164 24.82397461 -26.42993164 24.82397461 -33.42993164 24.82397461 C-31.10607713 22.14892665 -28.7693929 19.48538008 -26.42993164 16.82397461 C-25.69645508 15.98350586 -24.96297852 15.14303711 -24.20727539 14.27709961 C-23.45575195 13.42631836 -22.70422852 12.57553711 -21.92993164 11.69897461 C-21.23899414 10.91264648 -20.54805664 10.12631836 -19.83618164 9.31616211 C-18.64508789 8.0825293 -18.64508789 8.0825293 -17.42993164 6.82397461 C-16.96807748 6.32009437 -16.50622332 5.81621412 -16.03037357 5.29706478 C-11.00298819 0.33761943 -6.87632237 -0.05342604 0 0 Z " fill="#59554A" transform="translate(317.429931640625,275.176025390625)"/>
<path d="M0 0 C4.62 0 9.24 0 14 0 C14 0.99 14 1.98 14 3 C10.04 3 6.08 3 2 3 C2 5.31 2 7.62 2 10 C58.1 10 114.2 10 172 10 C172 7.36 172 4.72 172 2 C174.80163026 6.2024454 174.14489712 9.00104935 174 14 C170.37 14 166.74 14 163 14 C163 32.48 163 50.96 163 70 C159.7 70 156.4 70 153 70 C152.67128906 68.85724609 152.67128906 68.85724609 152.3359375 67.69140625 C148.66635138 55.74287583 143.24252356 47.31087009 132.5 40.75 C122.79538004 35.89769002 110.42023453 35.07968805 99.890625 37.8046875 C97.32899 38.98760812 95.24718192 40.29469174 93 42 C92.12859375 42.65484375 91.2571875 43.3096875 90.359375 43.984375 C81.34046108 51.42102332 78.65393392 59.03819825 75 70 C57.18 70 39.36 70 21 70 C21 74.62 21 79.24 21 84 C22.32 84.33 23.64 84.66 25 85 C27.81222818 86.89018615 30.46530389 88.93060778 32 92 C32.55068562 97.72713048 31.56556975 100.51756945 28 105 C27.56945312 105.54140625 27.13890625 106.0828125 26.6953125 106.640625 C23.69545261 109.04604261 20.43515143 108.51881507 16.73828125 108.42578125 C12.46749975 107.76170823 10.83662985 106.20987062 8 103 C6.49385987 98.48157961 5.74190396 93.5214124 7.94140625 89.11328125 C10.82495636 85.38003298 12.2244632 84.95510736 17 84 C17 79.71 17 75.42 17 71 C15.35 71 13.7 71 12 71 C12.05873291 69.90236328 12.11746582 68.80472656 12.17797852 67.67382812 C14.22424366 45.69875284 14.22424366 45.69875284 7.1484375 25.91796875 C3.64607402 22.43680466 -0.19076148 19.56379404 -4.45532227 17.0769043 C-4.96506592 16.72152588 -5.47480957 16.36614746 -6 16 C-6 15.34 -6 14.68 -6 14 C-11.61 14 -17.22 14 -23 14 C-23 13.01 -23 12.02 -23 11 C-15.41 11 -7.82 11 0 11 C0 7.37 0 3.74 0 0 Z M15 14 C15 31.49 15 48.98 15 67 C33.81 67 52.62 67 72 67 C73.65 62.71 75.3 58.42 77 54 C84.10489451 42.94794188 93.2455136 36.14163139 106 33 C121.55892092 31.70482496 132.1086674 35.23325216 144 45 C150.0535925 51.35281951 153.10312517 58.53702001 155 67 C156.65 67 158.3 67 160 67 C160 49.51 160 32.02 160 14 C112.15 14 64.3 14 15 14 Z " fill="#60594F" transform="translate(280,388)"/>
<path d="M0 0 C3.47871035 -0.147077 6.95660667 -0.23465255 10.4375 -0.3125 C11.41138672 -0.35439453 12.38527344 -0.39628906 13.38867188 -0.43945312 C20.44665855 -0.55747966 25.2935778 0.76973567 31 5 C35.75208709 9.98969144 36.16465057 14.12474521 36.203125 20.7734375 C36.20882507 21.53419586 36.21452515 22.29495422 36.22039795 23.07876587 C36.22983748 24.68758762 36.23637778 26.29642862 36.24023438 27.90527344 C36.24993701 30.35906915 36.2809678 32.81202589 36.3125 35.265625 C36.31903085 36.83072421 36.324281 38.39582939 36.328125 39.9609375 C36.3404718 40.69130219 36.3528186 41.42166687 36.36553955 42.17416382 C36.33933719 48.204312 34.57513573 51.16234165 30.75 55.625 C24.42933658 61.08375477 18.65894874 61.43602486 10.625 61.25 C9.25408203 61.24226563 9.25408203 61.24226563 7.85546875 61.234375 C1.15472274 61.15472274 1.15472274 61.15472274 0 60 C-0.09386381 58.1281906 -0.11743804 56.2528194 -0.11352539 54.37866211 C-0.11344986 53.17749252 -0.11337433 51.97632294 -0.11329651 50.73875427 C-0.10813522 49.4314888 -0.10297394 48.12422333 -0.09765625 46.77734375 C-0.09579198 45.43355868 -0.09436812 44.08977293 -0.09336853 42.74598694 C-0.08954402 39.20317723 -0.07971432 35.6604083 -0.06866455 32.11761475 C-0.05844899 28.50484773 -0.0538706 24.89207416 -0.04882812 21.27929688 C-0.03809198 14.1861812 -0.02101636 7.09309326 0 0 Z " fill="#3F3F3C" transform="translate(228,173)"/>
<path d="M0 0 C3.70773598 -0.28327355 7.30050286 -0.43490033 11 0 C13.04614258 2.15234375 13.04614258 2.15234375 14 5 C14.38502686 5.88816406 14.77005371 6.77632812 15.16674805 7.69140625 C16.34892571 10.79116308 17.5250714 13.89277458 18.6875 17 C19.10322266 18.08023438 19.51894531 19.16046875 19.94726562 20.2734375 C20.33978516 21.31757813 20.73230469 22.36171875 21.13671875 23.4375 C21.49467529 24.38496094 21.85263184 25.33242187 22.22143555 26.30859375 C23.00528174 29.01825836 23.15167035 31.19680121 23 34 C23.66 34 24.32 34 25 34 C25 22.78 25 11.56 25 0 C27.97 0 30.94 0 34 0 C35 1 35 1 35.12025452 3.39808655 C35.11803391 4.46175949 35.11581329 5.52543243 35.11352539 6.62133789 C35.11344986 7.82250748 35.11337433 9.02367706 35.11329651 10.26124573 C35.10813522 11.5685112 35.10297394 12.87577667 35.09765625 14.22265625 C35.09579198 15.56644132 35.09436812 16.91022707 35.09336853 18.25401306 C35.08954402 21.79682277 35.07971432 25.3395917 35.06866455 28.88238525 C35.05844899 32.49515227 35.0538706 36.10792584 35.04882812 39.72070312 C35.03809198 46.8138188 35.02101636 53.90690674 35 61 C31.7 61 28.4 61 25 61 C22.91429256 55.86022095 20.87650578 50.71996252 19 45.5 C16.49254627 36.66059759 16.49254627 36.66059759 12 29 C11.67 39.56 11.34 50.12 11 61 C7.7 61 4.4 61 1 61 C0 60 0 60 -0.12025452 57.60191345 C-0.11803391 56.53824051 -0.11581329 55.47456757 -0.11352539 54.37866211 C-0.11344986 53.17749252 -0.11337433 51.97632294 -0.11329651 50.73875427 C-0.10813522 49.4314888 -0.10297394 48.12422333 -0.09765625 46.77734375 C-0.09579198 45.43355868 -0.09436812 44.08977293 -0.09336853 42.74598694 C-0.08954402 39.20317723 -0.07971432 35.6604083 -0.06866455 32.11761475 C-0.05844899 28.50484773 -0.0538706 24.89207416 -0.04882812 21.27929688 C-0.03809198 14.1861812 -0.02101636 7.09309326 0 0 Z " fill="#3F3E3B" transform="translate(312,173)"/>
<path d="M0 0 C1.46953125 0.00773438 1.46953125 0.00773438 2.96875 0.015625 C3.9484375 0.01046875 4.928125 0.0053125 5.9375 0 C8.46875 0.265625 8.46875 0.265625 10.46875 2.265625 C11.25 4.734375 11.25 4.734375 11.96875 7.765625 C12.22527344 8.84199219 12.48179687 9.91835937 12.74609375 11.02734375 C13.56250328 14.68574106 14.29586885 18.35453206 15.00390625 22.03515625 C15.40615273 23.96526331 15.92711617 25.86990659 16.46875 27.765625 C17.23195012 30.43682541 17.82798181 32.98403131 18.34375 35.703125 C19.36963371 41.08074121 20.73019098 46.35860959 22.14794922 51.64428711 C23.12679233 55.4082491 23.46875 58.30702612 23.46875 62.265625 C19.83875 62.265625 16.20875 62.265625 12.46875 62.265625 C11.96588066 60.3080265 11.4665401 58.34952123 10.96875 56.390625 C10.6903125 55.30007812 10.411875 54.20953125 10.125 53.0859375 C9.46875 50.265625 9.46875 50.265625 9.46875 48.265625 C5.17875 48.265625 0.88875 48.265625 -3.53125 48.265625 C-3.66402344 49.19246094 -3.79679687 50.11929688 -3.93359375 51.07421875 C-4.19849609 52.87052734 -4.19849609 52.87052734 -4.46875 54.703125 C-4.64277344 55.89808594 -4.81679688 57.09304687 -4.99609375 58.32421875 C-5.53125 61.265625 -5.53125 61.265625 -6.53125 62.265625 C-8.21733966 62.33768011 -9.90625659 62.34948568 -11.59375 62.328125 C-12.51285156 62.31910156 -13.43195313 62.31007812 -14.37890625 62.30078125 C-15.08917969 62.28917969 -15.79945313 62.27757812 -16.53125 62.265625 C-16.81540755 55.81973536 -15.81455874 50.35462461 -14.15625 44.140625 C-13.93453125 43.27308594 -13.7128125 42.40554687 -13.484375 41.51171875 C-12.32494296 37.03085491 -11.00879874 32.65310599 -9.53125 28.265625 C-9.18522444 26.81488082 -8.87147932 25.35597779 -8.59375 23.890625 C-8.43003906 23.04757813 -8.26632812 22.20453125 -8.09765625 21.3359375 C-7.65504208 18.93666344 -7.22774016 16.53621003 -6.80859375 14.1328125 C-6.68025146 13.41270996 -6.55190918 12.69260742 -6.41967773 11.95068359 C-6.16349016 10.50952785 -5.91414533 9.06713665 -5.67211914 7.62353516 C-4.39328529 0.46102376 -4.39328529 0.46102376 0 0 Z " fill="#3F3E3B" transform="translate(435.53125,171.734375)"/>
<path d="M0 0 C1.79244141 0.01740234 1.79244141 0.01740234 3.62109375 0.03515625 C5.41740234 0.04869141 5.41740234 0.04869141 7.25 0.0625 C8.17683594 0.07410156 9.10367188 0.08570313 10.05859375 0.09765625 C11.96487641 5.4281874 13.2670318 10.8448196 14.55859375 16.34765625 C14.87763672 17.68376953 14.87763672 17.68376953 15.203125 19.046875 C16.24214971 23.43882607 17.21909569 27.83164345 18.08203125 32.26171875 C19.06979572 37.30587616 20.35256459 42.24627522 21.734375 47.1953125 C22.98694962 51.95132892 23.22293029 56.17851572 23.05859375 61.09765625 C19.75859375 61.09765625 16.45859375 61.09765625 13.05859375 61.09765625 C10.59581734 55.96687207 10.05859375 54.17280016 10.05859375 48.09765625 C5.76859375 48.09765625 1.47859375 48.09765625 -2.94140625 48.09765625 C-3.08578125 49.50015625 -3.23015625 50.90265625 -3.37890625 52.34765625 C-3.69427294 55.41121842 -4.18711567 58.08049392 -4.94140625 61.09765625 C-8.57140625 61.09765625 -12.20140625 61.09765625 -15.94140625 61.09765625 C-15.42413231 55.30418807 -14.55793382 49.6262036 -13.50390625 43.91015625 C-13.32057739 42.89501953 -13.32057739 42.89501953 -13.13354492 41.859375 C-12.36757577 37.79809606 -11.24742882 34.01043641 -9.94140625 30.09765625 C-9.38079384 27.0726851 -8.94278048 24.04468994 -8.50390625 21 C-7.94140625 18.09765625 -7.94140625 18.09765625 -6.9453125 15.6171875 C-5.78224202 12.69819739 -5.33401151 9.95308036 -4.87890625 6.84765625 C-3.8875047 0.12906722 -3.8875047 0.12906722 0 0 Z " fill="#403F3C" transform="translate(196.94140625,172.90234375)"/>
<path d="M0 0 C3.59194124 1.67483477 6.48121796 3.37184296 9.2890625 6.1796875 C10.67361001 10.72891504 10.57568506 15.33685968 10.1640625 20.0546875 C9.1640625 21.0546875 9.1640625 21.0546875 7.1328125 21.1875 C6.318125 21.18492187 5.5034375 21.18234375 4.6640625 21.1796875 C3.849375 21.18226563 3.0346875 21.18484375 2.1953125 21.1875 C0.1640625 21.0546875 0.1640625 21.0546875 -0.8359375 20.0546875 C-1.0612706 18.0266896 -1.28360935 15.99793876 -1.45703125 13.96484375 C-1.69815977 11.8217927 -1.69815977 11.8217927 -3.8359375 10.0546875 C-7.3359375 9.72135417 -7.3359375 9.72135417 -10.8359375 10.0546875 C-13.37679999 12.59554999 -13.08309379 14.22703785 -13.11383057 17.69309998 C-13.1097821 18.4608223 -13.10573364 19.22854462 -13.1015625 20.01953125 C-13.10443268 21.2032003 -13.10443268 21.2032003 -13.10736084 22.41078186 C-13.10872283 24.0810681 -13.1050254 25.75136492 -13.09667969 27.42163086 C-13.0859943 29.9785952 -13.09656689 32.53485468 -13.109375 35.09179688 C-13.10805313 36.71354322 -13.10549016 38.33528912 -13.1015625 39.95703125 C-13.10561096 40.72272934 -13.10965942 41.48842743 -13.11383057 42.27732849 C-13.0803355 46.07118001 -12.99198394 47.82061783 -10.8359375 51.0546875 C-6.78148108 51.48601265 -5.28622792 51.35488111 -1.8359375 49.0546875 C-1.29102376 46.66159981 -1.29102376 46.66159981 -1.2109375 43.9921875 C-0.91838025 39.13713025 -0.91838025 39.13713025 0.1640625 38.0546875 C1.66144374 37.9567818 3.16349142 37.92493886 4.6640625 37.9296875 C5.47875 37.92710937 6.2934375 37.92453125 7.1328125 37.921875 C9.1640625 38.0546875 9.1640625 38.0546875 10.1640625 39.0546875 C10.96487089 45.56411568 10.7281346 51.01390584 6.76171875 56.39453125 C2.25603275 61.07647881 -2.50581603 62.31211177 -8.8984375 62.6796875 C-14.1986493 62.51846433 -16.98177568 61.25378987 -20.7265625 57.5625 C-21.8359375 56.0546875 -21.8359375 56.0546875 -21.8359375 54.0546875 C-22.4959375 54.0546875 -23.1559375 54.0546875 -23.8359375 54.0546875 C-24.72383494 51.39099518 -24.98812691 49.72761406 -25.06054688 46.9855957 C-25.08306519 46.17077225 -25.1055835 45.35594879 -25.12878418 44.51643372 C-25.20015465 40.78555088 -25.25732486 37.05485776 -25.29589844 33.32348633 C-25.32247327 31.36132353 -25.36336328 29.39929957 -25.41894531 27.43774414 C-25.4984265 24.59724941 -25.53126387 21.75941526 -25.5546875 18.91796875 C-25.58767944 18.04997147 -25.62067139 17.18197418 -25.65466309 16.28767395 C-25.63474197 10.15713679 -23.92818473 7.08440285 -19.73254395 2.65324402 C-14.00061157 -2.17792055 -6.96209451 -2.32069817 0 0 Z " fill="#403F3C" transform="translate(401.8359375,172.9453125)"/>
<path d="M0 0 C15.84 0 31.68 0 48 0 C48 0.33 48 0.66 48 1 C43.05 1 38.1 1 33 1 C33 8.26 33 15.52 33 23 C38.94 23 44.88 23 51 23 C50.505 19.04 50.505 19.04 50 15 C50.66 14.67 51.32 14.34 52 14 C52.99 18.455 52.99 18.455 54 23 C59.28 23 64.56 23 70 23 C70.33 22.34 70.66 21.68 71 21 C70.505 23.475 70.505 23.475 70 26 C64.72 26 59.44 26 54 26 C54 28.31 54 30.62 54 33 C52.25881084 35.86092496 49.95373459 37.46340646 47 39 C40.43826043 40.53497836 35.61616938 38.26758946 30 35 C30 31.7 30 28.4 30 25 C23.73 25 17.46 25 11 25 C10.67 25.66 10.34 26.32 10 27 C10 26.34 10 25.68 10 25 C8.98873047 25.24556641 8.98873047 25.24556641 7.95703125 25.49609375 C4.48632094 26.0875358 1.20677876 26.09539046 -2.3125 26.0625 C-3.56675781 26.05347656 -4.82101562 26.04445313 -6.11328125 26.03515625 C-7.06589844 26.02355469 -8.01851563 26.01195312 -9 26 C-9.33 27.32 -9.66 28.64 -10 30 C-10.495 28.02 -10.495 28.02 -11 26 C-16.94 26 -22.88 26 -29 26 C-29 28.31 -29 30.62 -29 33 C-30.32 33 -31.64 33 -33 33 C-32.67 30.69 -32.34 28.38 -32 26 C-37.94 26 -43.88 26 -50 26 C-50 27.98 -50 29.96 -50 32 C-50.66 31.67 -51.32 31.34 -52 31 C-52.3125 27.6875 -52.3125 27.6875 -52 24 C-49.5 22.0625 -49.5 22.0625 -47 21 C-47 21.66 -47 22.32 -47 23 C-41.72 23 -36.44 23 -31 23 C-31 22.34 -31 21.68 -31 21 C-30.01 20.67 -29.02 20.34 -28 20 C-28 20.99 -28 21.98 -28 23 C-19.585 22.505 -19.585 22.505 -11 22 C-10.505 20.515 -10.505 20.515 -10 19 C-9.01 18.67 -8.02 18.34 -7 18 C-7 19.65 -7 21.3 -7 23 C-1.39 23 4.22 23 10 23 C10.103125 21.783125 10.20625 20.56625 10.3125 19.3125 C10.98944431 13.08063033 12.52658364 7.08585018 14 1 C9.38 1 4.76 1 0 1 C0 0.67 0 0.34 0 0 Z " fill="#5A574A" transform="translate(336,277)"/>
<path d="M0 0 C1.25159912 0.00523682 2.50319824 0.01047363 3.79272461 0.01586914 C4.78942421 0.01799156 4.78942421 0.01799156 5.80625916 0.02015686 C7.93590735 0.02577021 10.06545175 0.03832485 12.19506836 0.05102539 C13.63582205 0.05603868 15.07657739 0.06060188 16.51733398 0.06469727 C20.05577938 0.07574394 23.59416375 0.09301747 27.13256836 0.11352539 C27.13256836 3.08352539 27.13256836 6.05352539 27.13256836 9.11352539 C20.86256836 9.44352539 14.59256836 9.77352539 8.13256836 10.11352539 C8.13256836 14.73352539 8.13256836 19.35352539 8.13256836 24.11352539 C13.08256836 24.44352539 18.03256836 24.77352539 23.13256836 25.11352539 C23.13256836 28.08352539 23.13256836 31.05352539 23.13256836 34.11352539 C18.18256836 34.44352539 13.23256836 34.77352539 8.13256836 35.11352539 C7.80256836 40.39352539 7.47256836 45.67352539 7.13256836 51.11352539 C14.06256836 51.11352539 20.99256836 51.11352539 28.13256836 51.11352539 C28.13256836 54.41352539 28.13256836 57.71352539 28.13256836 61.11352539 C23.73600663 61.13818043 19.33948116 61.15636381 14.94287109 61.16845703 C13.44611918 61.1734966 11.9493722 61.18032826 10.45263672 61.18896484 C8.30557029 61.20104698 6.15856874 61.2067573 4.01147461 61.21118164 C2.07123413 61.21903687 2.07123413 61.21903687 0.09179688 61.22705078 C-2.86743164 61.11352539 -2.86743164 61.11352539 -3.86743164 60.11352539 C-3.96648316 58.27779908 -3.99542371 56.43824964 -3.99682617 54.59985352 C-3.99997833 53.42193237 -4.00313049 52.24401123 -4.00637817 51.03039551 C-4.00435394 49.74814087 -4.00232971 48.46588623 -4.00024414 47.14477539 C-4.00120087 45.83899536 -4.00215759 44.53321533 -4.00314331 43.18786621 C-4.00461997 40.42039817 -4.00246675 37.65296235 -3.99780273 34.88549805 C-3.99210545 31.3308989 -3.99538462 27.77637525 -4.0013752 24.22177887 C-4.00584911 20.84193825 -4.0027205 17.46211816 -4.00024414 14.08227539 C-4.00226837 12.80002075 -4.0042926 11.51776611 -4.00637817 10.19665527 C-4.00322601 9.01873413 -4.00007385 7.84081299 -3.99682617 6.62719727 C-3.99603058 5.58430542 -3.99523499 4.54141357 -3.99441528 3.46691895 C-3.80699034 -0.00663589 -3.5254525 0.1395773 0 0 Z " fill="#3F3E3B" transform="translate(507.867431640625,172.886474609375)"/>
<path d="M0 0 C4.71245326 -1.17639344 9.46486063 -2.11084147 14 0 C20.20907981 6.47672785 23.75943 15.75430306 27 24 C27.309375 24.78375 27.61875 25.5675 27.9375 26.375 C28.02251961 29.94582343 26.8229001 31.75976145 24.6796875 34.55078125 C21.70143711 37.12038798 18.83960918 36.93492188 15 37 C17.64 37.33 20.28 37.66 23 38 C23 38.33 23 38.66 23 39 C18.92703124 39.49873087 15.43224897 39.88737164 11.84375 37.6640625 C10.13838216 36.17536024 8.53724962 34.66082274 7 33 C6.731875 33.61875 6.46375 34.2375 6.1875 34.875 C5 37 5 37 2 39 C-1.11390611 39.67023122 -3.89347653 39.72379884 -7 39 C-9.48747979 36.97260285 -11.25595247 34.68104561 -13 32 C-12.34 32 -11.68 32 -11 32 C-11 29.69 -11 27.38 -11 25 C-5.72 25 -0.44 25 5 25 C5 24.01 5 23.02 5 22 C-0.28 22 -5.56 22 -11 22 C-13.25 16.375 -13.25 16.375 -13.6328125 13.01171875 C-13.71660156 12.30595703 -13.80039062 11.60019531 -13.88671875 10.87304688 C-13.96535156 10.15181641 -14.04398437 9.43058594 -14.125 8.6875 C-14.21136719 7.94693359 -14.29773438 7.20636719 -14.38671875 6.44335938 C-14.59734705 4.62961565 -14.79952986 2.81489457 -15 1 C-10.71 1 -6.42 1 -2 1 C-1.67 1.66 -1.34 2.32 -1 3 C-0.67 2.01 -0.34 1.02 0 0 Z " fill="#635E54" transform="translate(401,278)"/>
<path d="M0 0 C10.23 0 20.46 0 31 0 C31 2.97 31 5.94 31 9 C24.4 9 17.8 9 11 9 C11 14.28 11 19.56 11 25 C15.95 25 20.9 25 26 25 C26 27.97 26 30.94 26 34 C21.05 34 16.1 34 11 34 C11 39.61 11 45.22 11 51 C13.03994141 50.98259766 13.03994141 50.98259766 15.12109375 50.96484375 C16.8932278 50.95546738 18.66536333 50.94636702 20.4375 50.9375 C21.33533203 50.92912109 22.23316406 50.92074219 23.15820312 50.91210938 C24.01220703 50.90888672 24.86621094 50.90566406 25.74609375 50.90234375 C26.53685303 50.89710693 27.3276123 50.89187012 28.14233398 50.88647461 C30 51 30 51 31 52 C31 54.97 31 57.94 31 61 C20.77 61 10.54 61 0 61 C0 40.87 0 20.74 0 0 Z " fill="#3C3B38" transform="translate(273,173)"/>
<path d="M0 0 C2.24993359 -0.02707139 4.49996095 -0.04642829 6.75 -0.0625 C8.00296875 -0.07410156 9.2559375 -0.08570313 10.546875 -0.09765625 C14 0 14 0 18 1 C18 18.49 18 35.98 18 54 C36.81 54 55.62 54 75 54 C75.33 52.68 75.66 51.36 76 50 C76.99 49.34 77.98 48.68 79 48 C78.67 50.97 78.34 53.94 78 57 C60.18 57 42.36 57 24 57 C24 61.62 24 66.24 24 71 C25.32 71.33 26.64 71.66 28 72 C30.81222818 73.89018615 33.46530389 75.93060778 35 79 C35.55068562 84.72713048 34.56556975 87.51756945 31 92 C30.56945312 92.54140625 30.13890625 93.0828125 29.6953125 93.640625 C26.69545261 96.04604261 23.43515143 95.51881507 19.73828125 95.42578125 C15.46749975 94.76170823 13.83662985 93.20987062 11 90 C9.49385987 85.48157961 8.74190396 80.5214124 10.94140625 76.11328125 C13.82495636 72.38003298 15.2244632 71.95510736 20 71 C20 66.71 20 62.42 20 58 C18.35 58 16.7 58 15 58 C15.03778564 56.88141602 15.07557129 55.76283203 15.11450195 54.61035156 C15.23882002 50.40539351 15.27518637 46.20323487 15.28686523 41.99658203 C15.30375802 40.18664042 15.34357976 38.37674625 15.40795898 36.56787109 C16.06990643 25.10172533 16.06990643 25.10172533 11.05224609 15.30273438 C8.79379664 13.18719828 6.40681759 11.39636137 3.89526367 9.59667969 C1 7 1 7 0.0949707 3.17675781 C0.06363037 2.12842773 0.03229004 1.08009766 0 0 Z " fill="#58534C" transform="translate(277,401)"/>
<path d="M0 0 C2.31 0 4.62 0 7 0 C9.29275811 7.86088496 10.07471986 15.88903365 11 24 C11.08040527 23.41508789 11.16081055 22.83017578 11.24365234 22.22753906 C11.61351214 19.56729211 11.99414033 16.90869347 12.375 14.25 C12.50132812 13.32960938 12.62765625 12.40921875 12.7578125 11.4609375 C12.95117188 10.12675781 12.95117188 10.12675781 13.1484375 8.765625 C13.26364746 7.94868164 13.37885742 7.13173828 13.49755859 6.29003906 C14.01484503 3.93233896 14.83073338 2.10214721 16 0 C17.98 0 19.96 0 22 0 C22.67964664 2.33021705 23.34439197 4.66300268 24 7 C24.350625 8.2375 24.70125 9.475 25.0625 10.75 C25.89608467 14.08108406 26.27015876 17.34524553 26.55859375 20.765625 C26.64294678 21.74821289 26.7272998 22.73080078 26.81420898 23.74316406 C26.87552002 24.48791992 26.93683105 25.23267578 27 26 C27.08564209 25.2479126 27.17128418 24.4958252 27.25952148 23.72094727 C27.64770145 20.33426705 28.04250984 16.94839239 28.4375 13.5625 C28.57220703 12.37849609 28.70691406 11.19449219 28.84570312 9.97460938 C28.97783203 8.84990234 29.10996094 7.72519531 29.24609375 6.56640625 C29.36654053 5.52427979 29.4869873 4.48215332 29.61108398 3.40844727 C30 1 30 1 31 0 C33.67058851 -0.14115161 36.32432238 -0.04247107 39 0 C38.35102027 8.23393037 36.9575564 16.26820324 35.41601562 24.37133789 C34.99511299 26.58824 34.58311758 28.80667842 34.171875 31.02539062 C33.90677298 32.43499429 33.64116704 33.8445033 33.375 35.25390625 C33.13523437 36.52564697 32.89546875 37.7973877 32.6484375 39.10766602 C32 42 32 42 31 43 C28.66702567 43.04092937 26.33294775 43.04241723 24 43 C21.22099564 34.50170541 19.34104715 26.96908052 20 18 C19.34 18 18.68 18 18 18 C18.05220703 18.82177734 18.05220703 18.82177734 18.10546875 19.66015625 C18.38086906 27.72545104 16.75181574 35.17939404 15 43 C12.36 43 9.72 43 7 43 C5.28746885 39.16725605 4.52010897 35.64643793 3.96484375 31.4921875 C3.79533203 30.25855469 3.62582031 29.02492188 3.45117188 27.75390625 C3.28166016 26.47386719 3.11214844 25.19382812 2.9375 23.875 C2.59490827 21.33039671 2.2499685 18.78610811 1.90234375 16.2421875 C1.75273193 15.1166748 1.60312012 13.99116211 1.44897461 12.83154297 C1.06856152 9.93275621 1.06856152 9.93275621 0 7 C-0.03954234 4.66700175 -0.04401732 2.33291811 0 0 Z " fill="#9C965D" transform="translate(376,528)"/>
<path d="M0 0 C10.23 0 20.46 0 31 0 C31 2.97 31 5.94 31 9 C24.4 9 17.8 9 11 9 C11.33 13.95 11.66 18.9 12 24 C16.95 24.33 21.9 24.66 27 25 C27.09765625 31.93359375 27.09765625 31.93359375 27 34 C26 35 26 35 22.62109375 35.09765625 C21.22652508 35.09191424 19.83198403 35.07890228 18.4375 35.0625 C15.983125 35.041875 13.52875 35.02125 11 35 C11 43.58 11 52.16 11 61 C7.7 61 4.4 61 1 61 C0 60 0 60 -0.12025452 57.60191345 C-0.11803391 56.53824051 -0.11581329 55.47456757 -0.11352539 54.37866211 C-0.11344986 53.17749252 -0.11337433 51.97632294 -0.11329651 50.73875427 C-0.10813522 49.4314888 -0.10297394 48.12422333 -0.09765625 46.77734375 C-0.09579198 45.43355868 -0.09436812 44.08977293 -0.09336853 42.74598694 C-0.08954402 39.20317723 -0.07971432 35.6604083 -0.06866455 32.11761475 C-0.05844899 28.50484784 -0.0538159 24.89207416 -0.04882812 21.27929688 C-0.03862218 14.18616187 -0.01905051 7.09313893 0 0 Z " fill="#3F3E3B" transform="translate(466,173)"/>
<path d="M0 0 C55.44 0 110.88 0 168 0 C168 1.98 168 3.96 168 6 C112.56 6 57.12 6 0 6 C0 4.02 0 2.04 0 0 Z " fill="#DEBE8F" transform="translate(283,392)"/>
<path d="M0 0 C3.16033861 1.42567591 5.19642246 3.02409706 7 6 C7.54347062 9.09476328 7.43436621 11.8973842 7 15 C4.69 15 2.38 15 0 15 C-0.66 13.02 -1.32 11.04 -2 9 C-3.65 8.67 -5.3 8.34 -7 8 C-9.24475097 11.36712646 -9.2471312 12.50124055 -9.23046875 16.4375 C-9.22756836 18.02691406 -9.22756836 18.02691406 -9.22460938 19.6484375 C-9.21236328 20.75445313 -9.20011719 21.86046875 -9.1875 23 C-9.18685547 24.10601563 -9.18621094 25.21203125 -9.18554688 26.3515625 C-9.238258 32.27147358 -9.238258 32.27147358 -8 38 C-4.20452079 37.03223902 -4.20452079 37.03223902 -1 35 C-0.76924918 33.65252916 -0.58846937 32.29622435 -0.4375 30.9375 C-0.293125 29.638125 -0.14875 28.33875 0 27 C-1.32 27 -2.64 27 -4 27 C-4 24.69 -4 22.38 -4 20 C-2.18757948 19.97312721 -0.37504767 19.95366285 1.4375 19.9375 C2.44683594 19.92589844 3.45617187 19.91429687 4.49609375 19.90234375 C7 20 7 20 8 21 C8.08713831 22.70772358 8.10700007 24.41898649 8.09765625 26.12890625 C8.09443359 27.16337891 8.09121094 28.19785156 8.08789062 29.26367188 C8.07951172 30.35228516 8.07113281 31.44089844 8.0625 32.5625 C8.05798828 33.65498047 8.05347656 34.74746094 8.04882812 35.87304688 C8.03699826 38.58208495 8.02051543 41.29101599 8 44 C6.35 44 4.7 44 3 44 C3 43.01 3 42.02 3 41 C2.38125 41.66 1.7625 42.32 1.125 43 C-3.22324569 45.78287724 -6.96072308 45.84414283 -12 45 C-15.52640005 42.61967996 -16.6745138 39.96180077 -18 36 C-18.44490356 31.17560041 -18.370266 26.34288411 -18.375 21.5 C-18.39949219 20.18128906 -18.42398437 18.86257813 -18.44921875 17.50390625 C-18.45308594 16.23417969 -18.45695312 14.96445312 -18.4609375 13.65625 C-18.46915527 12.49931641 -18.47737305 11.34238281 -18.48583984 10.15039062 C-17.89703415 6.33232596 -16.67482048 4.73713817 -14 2 C-9.50359551 -0.99760299 -5.26296953 -0.81250295 0 0 Z " fill="#9B965A" transform="translate(362,527)"/>
<path d="M0 0 C1.23556641 0.01740234 1.23556641 0.01740234 2.49609375 0.03515625 C3.32238281 0.04417969 4.14867187 0.05320312 5 0.0625 C5.63808594 0.07410156 6.27617187 0.08570313 6.93359375 0.09765625 C9.77769249 6.94099536 11.4895088 13.98464847 13.15063477 21.18896484 C13.62212923 23.22713241 14.10644451 25.2619685 14.59179688 27.296875 C14.89791038 28.60789221 15.20327505 29.91908454 15.5078125 31.23046875 C15.78197998 32.40496582 16.05614746 33.57946289 16.33862305 34.78955078 C16.91152656 37.97496011 17.04547444 40.86997501 16.93359375 44.09765625 C14.29359375 44.09765625 11.65359375 44.09765625 8.93359375 44.09765625 C8.27359375 40.79765625 7.61359375 37.49765625 6.93359375 34.09765625 C3.63359375 34.09765625 0.33359375 34.09765625 -3.06640625 34.09765625 C-3.39640625 37.06765625 -3.72640625 40.03765625 -4.06640625 43.09765625 C-6.37640625 43.09765625 -8.68640625 43.09765625 -11.06640625 43.09765625 C-10.24117829 31.25990344 -7.78534451 19.65803365 -4.94140625 8.16015625 C-4.77084717 7.46776855 -4.60028809 6.77538086 -4.42456055 6.06201172 C-2.91690562 0.13784998 -2.91690562 0.13784998 0 0 Z " fill="#9E995E" transform="translate(322.06640625,527.90234375)"/>
<path d="M0 0 C2.64 0 5.28 0 8 0 C9.73956658 1.73956658 9.37190386 4.1936622 9.5625 6.5625 C9.64628906 7.57441406 9.73007812 8.58632813 9.81640625 9.62890625 C9.87699219 10.41136719 9.93757813 11.19382812 10 12 C10.49371094 11.21753906 10.98742187 10.43507813 11.49609375 9.62890625 C12.13675781 8.61699219 12.77742188 7.60507812 13.4375 6.5625 C14.39462891 5.04849609 14.39462891 5.04849609 15.37109375 3.50390625 C17 1 17 1 18 0 C20.33297433 -0.04092937 22.66705225 -0.04241723 25 0 C24.20250714 4.84192092 21.16429903 8.31594664 18.3984375 12.24609375 C16.8170867 14.83013628 16.8170867 14.83013628 17.03515625 17.3203125 C18.70357138 21.95404846 20.9669055 26.29313128 23.20507812 30.67382812 C25.31870912 34.97371036 26.49070656 38.08514541 26 43 C23.69 43 21.38 43 19 43 C15.85180745 37.13784836 13.73624758 31.4188547 12 25 C10.37975355 26.02842214 10.37975355 26.02842214 9 28 C8.64909462 30.6059039 8.44372572 33.01342273 8.375 35.625 C8.10472973 42.89527027 8.10472973 42.89527027 7 44 C4.69 44 2.38 44 0 44 C0 29.48 0 14.96 0 0 Z " fill="#9D975D" transform="translate(281,528)"/>
<path d="M0 0 C15.7600687 -0.39887541 31.51875411 -0.69773417 47.28263092 -0.88080692 C54.60404644 -0.96811185 61.9223094 -1.08688783 69.24169922 -1.2824707 C75.6289992 -1.45306419 82.0140157 -1.56184756 88.4035306 -1.59950441 C91.78164109 -1.62149233 95.15322627 -1.67228131 98.52922058 -1.79741096 C120.63328674 -2.52556175 120.63328674 -2.52556175 128.07397461 3.6164856 C131.58253417 7.05819264 134.56261919 10.77137887 137.38352966 14.78920174 C139.57852282 17.79122841 142.08422835 20.45885368 144.6417923 23.1538229 C146.21690065 25.29482752 146.52674519 26.55025476 146.625 29.1875 C146.00310142 32.98108137 145.42812699 35.05156008 143 38 C140.8125 39.3125 140.8125 39.3125 139 40 C139 40.66 139 41.32 139 42 C137.68 41.67 136.36 41.34 135 41 C135.66 41 136.32 41 137 41 C137 40.34 137 39.68 137 39 C136.113125 39.12375 135.22625 39.2475 134.3125 39.375 C131 39 131 39 128.125 36.3125 C126 33 126 33 126 28 C130.62 27.67 135.24 27.34 140 27 C140 26.67 140 26.34 140 26 C138.48019531 26.04833984 138.48019531 26.04833984 136.9296875 26.09765625 C126.395108 26.13047425 126.395108 26.13047425 122.87890625 23.28125 C121.34754935 20.92403938 120.17399858 18.55316195 119 16 C117.8899172 14.17832566 116.76503105 12.36558359 115.625 10.5625 C113 6.26153846 113 6.26153846 113 4 C116.07617188 3.70703125 116.07617188 3.70703125 119.15234375 3.4140625 C119.76207031 3.27742188 120.37179687 3.14078125 121 3 C121.33 2.34 121.66 1.68 122 1 C61.115 1.495 61.115 1.495 -1 2 C-0.67 1.34 -0.34 0.68 0 0 Z " fill="#78756B" transform="translate(306,275)"/>
<path d="M0 0 C3.3 0 6.6 0 10 0 C10.16276042 1.98567708 10.32552083 3.97135417 10.48828125 5.95703125 C10.81393847 8.09386811 10.81393847 8.09386811 12.51367188 9.29492188 C14.58043795 11.66586377 14.34449735 13.21532664 14.29296875 16.32421875 C14.2784668 17.86625977 14.2784668 17.86625977 14.26367188 19.43945312 C14.23853516 20.51130859 14.21339844 21.58316406 14.1875 22.6875 C14.16719727 24.31268555 14.16719727 24.31268555 14.14648438 25.97070312 C14.11110643 28.64763405 14.06174189 31.32356838 14 34 C13.67 34 13.34 34 13 34 C13 26.74 13 19.48 13 12 C12.34 12 11.68 12 11 12 C11.00523682 12.6612085 11.01047363 13.32241699 11.01586914 14.00366211 C11.03657656 16.98159851 11.04964012 19.95951982 11.0625 22.9375 C11.07087891 23.97841797 11.07925781 25.01933594 11.08789062 26.09179688 C11.09111328 27.08115234 11.09433594 28.07050781 11.09765625 29.08984375 C11.10289307 30.00628662 11.10812988 30.92272949 11.11352539 31.86694336 C11 34 11 34 10 35 C7.47905924 35.08847743 4.98569107 35.11527301 2.46484375 35.09765625 C1.33496788 35.09553383 1.33496788 35.09553383 0.18226624 35.09336853 C-2.2326956 35.08775376 -4.64756601 35.07519883 -7.0625 35.0625 C-8.69596221 35.0574869 -10.32942586 35.05292366 -11.96289062 35.04882812 C-15.97529585 35.03777954 -19.98763241 35.02050506 -24 35 C-24.20117188 29.31054688 -24.20117188 29.31054688 -22.390625 26.515625 C-21.68421875 25.76796875 -20.9778125 25.0203125 -20.25 24.25 C-19.20585937 23.11304688 -19.20585937 23.11304688 -18.140625 21.953125 C-14.01257341 18.18665457 -10.79988188 17.70799291 -5.25 17.375 C-3.49429687 17.26285156 -3.49429687 17.26285156 -1.703125 17.1484375 C-0.81109375 17.09945313 0.0809375 17.05046875 1 17 C1.103125 16.05125 1.20625 15.1025 1.3125 14.125 C2 11 2 11 5 9 C4.34 8.34 3.68 7.68 3 7 C2.875 4.375 2.875 4.375 3 2 C4.2065625 2.0309375 4.2065625 2.0309375 5.4375 2.0625 C7.93354885 2.29633621 7.93354885 2.29633621 9 1 C6.36 1 3.72 1 1 1 C1 3.64 1 6.28 1 9 C0.67 9 0.34 9 0 9 C0 6.03 0 3.06 0 0 Z " fill="#949552" transform="translate(412,340)"/>
<path d="M0 0 C0 3.63 0 7.26 0 11 C-1.98 11.99 -1.98 11.99 -4 13 C-4 13.66 -4 14.32 -4 15 C-12.03501094 15.78774617 -12.03501094 15.78774617 -16.0625 12.5 C-16.701875 11.675 -17.34125 10.85 -18 10 C-20.49361571 11.20381448 -22.68143083 12.45428722 -25 14 C-30.57459428 14.44956405 -33.31235708 14.21438371 -38 11 C-41.12802845 10.66781808 -41.12802845 10.66781808 -43.25 13 C-46.70642203 15.51376147 -48.8221955 15.32767094 -53 15 C-52.34 14.34 -51.68 13.68 -51 13 C-51.5775 12.79375 -52.155 12.5875 -52.75 12.375 C-55.88348274 10.46009388 -57.22114587 8.17652523 -59 5 C-59 3.68 -59 2.36 -59 1 C-53.06 1 -47.12 1 -41 1 C-40.67 1.99 -40.34 2.98 -40 4 C-39.67 3.01 -39.34 2.02 -39 1 C-26.01485466 -0.30083746 -13.03412498 -0.09207781 0 0 Z " fill="#5C574E" transform="translate(366,302)"/>
<path d="M0 0 C7.26 0 14.52 0 22 0 C22 2.31 22 4.62 22 7 C17.38 7 12.76 7 8 7 C8 10.3 8 13.6 8 17 C8.78246094 16.98839844 9.56492187 16.97679687 10.37109375 16.96484375 C11.38300781 16.95582031 12.39492188 16.94679688 13.4375 16.9375 C14.44683594 16.92589844 15.45617187 16.91429687 16.49609375 16.90234375 C19 17 19 17 20 18 C20.125 21 20.125 21 20 24 C19 25 19 25 16.71484375 25.09765625 C14.14322917 25.06510417 11.57161458 25.03255208 9 25 C9 28.63 9 32.26 9 36 C10.39025391 35.98259766 10.39025391 35.98259766 11.80859375 35.96484375 C13.00613281 35.95582031 14.20367187 35.94679688 15.4375 35.9375 C16.63246094 35.92589844 17.82742188 35.91429687 19.05859375 35.90234375 C22 36 22 36 23 37 C23 38.98 23 40.96 23 43 C15.41 43 7.82 43 0 43 C0 28.81 0 14.62 0 0 Z " fill="#9D9960" transform="translate(420,528)"/>
<path d="M0 0 C9 0 9 0 11.52709961 1.02783203 C13.75224287 4.00722988 13.59129918 6.97854573 13.56640625 10.5546875 C13.57570412 11.66253098 13.57570412 11.66253098 13.58518982 12.79275513 C13.59228931 14.35449913 13.58911153 15.9163188 13.57641602 17.47802734 C13.5625843 19.86047954 13.59656696 22.23897568 13.63476562 24.62109375 C13.63571722 26.14062596 13.63385581 27.66016306 13.62890625 29.1796875 C13.64216446 29.88817841 13.65542267 30.59666931 13.66908264 31.32662964 C13.60043295 35.00006389 13.04398785 36.93553224 10.96069336 39.98876953 C8 42 8 42 0 42 C0 28.14 0 14.28 0 0 Z " fill="#E9E8E3" transform="translate(239,183)"/>
<path d="M0 0 C2.64 0 5.28 0 8 0 C8 1.98 8 3.96 8 6 C7.67 6 7.34 6 7 6 C7 4.35 7 2.7 7 1 C5.35 1 3.7 1 2 1 C3.26974972 5.41522109 3.26974972 5.41522109 6 9 C5.38125 9.04125 4.7625 9.0825 4.125 9.125 C3.073125 9.558125 3.073125 9.558125 2 10 C0.84164327 12.97503122 0.84164327 12.97503122 0 16 C-2.50665006 17.25332503 -4.45274156 17.1787513 -7.25 17.3125 C-13.75215707 17.87273808 -17.42084133 20.13499446 -21.8125 24.875 C-24.47685455 28.20342427 -24.47685455 28.20342427 -25 34 C-13.78 33.67 -2.56 33.34 9 33 C9.33 25.74 9.66 18.48 10 11 C10.66 11 11.32 11 12 11 C12.33 18.26 12.66 25.52 13 33 C14.32 33.33 15.64 33.66 17 34 C17 38.62 17 43.24 17 48 C17.66 48 18.32 48 19 48 C19 48.66 19 49.32 19 50 C1.51 50 -15.98 50 -34 50 C-34 49.34 -34 48.68 -34 48 C-18.16 48 -2.32 48 14 48 C14 44.04 14 40.08 14 36 C-1.18 36 -16.36 36 -32 36 C-32 35.67 -32 35.34 -32 35 C-29.525 34.505 -29.525 34.505 -27 34 C-27.06960938 33.43152344 -27.13921875 32.86304688 -27.2109375 32.27734375 C-27.52932013 27.736601 -27.38839572 24.78806242 -24.4375 21.1875 C-21.2766948 17.97438833 -18.08643485 15.89186799 -14 14 C-12.68 14 -11.36 14 -10 14 C-10 12.68 -10 11.36 -10 10 C-10.99 10 -11.98 10 -13 10 C-13 8.68 -13 7.36 -13 6 C-10.03 6 -7.06 6 -4 6 C-4 6.99 -4 7.98 -4 9 C-4.66 9 -5.32 9 -6 9 C-6 10.32 -6 11.64 -6 13 C-5.01 12.67 -4.02 12.34 -3 12 C-2.26676204 9.98491642 -2.26676204 9.98491642 -2 8 C-1.34 8 -0.68 8 0 8 C0 5.36 0 2.72 0 0 Z " fill="#524F45" transform="translate(413,341)"/>
<path d="M0 0 C15.18 0 30.36 0 46 0 C46 3.3 46 6.6 46 10 C30.82 10 15.64 10 0 10 C0 6.7 0 3.4 0 0 Z " fill="#949454" transform="translate(381,378)"/>
<path d="M0 0 C1.48831242 0.00667405 2.97660807 0.01863442 4.46484375 0.03515625 C5.22345703 0.03966797 5.98207031 0.04417969 6.76367188 0.04882812 C8.64326246 0.06064945 10.52281274 0.07858547 12.40234375 0.09765625 C13.7749761 4.57720493 12.94398144 6.86770372 10.96484375 11.03515625 C9.35585891 14.43287628 8.39789385 16.5681183 8.4296875 20.3515625 C8.42066406 21.25777344 8.41164063 22.16398437 8.40234375 23.09765625 C4.98140133 25.37828453 3.72047153 25.31690632 -0.28515625 25.22265625 C-1.77595703 25.19558594 -1.77595703 25.19558594 -3.296875 25.16796875 C-4.05613281 25.14476562 -4.81539063 25.1215625 -5.59765625 25.09765625 C-5.59765625 24.76765625 -5.59765625 24.43765625 -5.59765625 24.09765625 C-3.28765625 24.09765625 -0.97765625 24.09765625 1.40234375 24.09765625 C1.40234375 23.43765625 1.40234375 22.77765625 1.40234375 22.09765625 C-3.21765625 22.09765625 -7.83765625 22.09765625 -12.59765625 22.09765625 C-11.77899922 18.00437108 -10.90457837 15.28320091 -9.16015625 11.59765625 C-7.86931411 8.85413505 -6.61326472 6.13720511 -5.5 3.31640625 C-4.05655099 -0.23285366 -4.15610289 0.11281495 0 0 Z " fill="#6D6861" transform="translate(358.59765625,361.90234375)"/>
<path d="M0 0 C-0.33 0.99 -0.66 1.98 -1 3 C-3.64 3 -6.28 3 -9 3 C-7.37644058 5.77167982 -5.75090291 8.54219435 -4.125 11.3125 C-3.66480469 12.09818359 -3.20460938 12.88386719 -2.73046875 13.69335938 C-2.28574219 14.45068359 -1.84101563 15.20800781 -1.3828125 15.98828125 C-0.97434082 16.68477783 -0.56586914 17.38127441 -0.14501953 18.09887695 C0.85648124 19.7617099 1.9232503 21.38487545 3 23 C5.77262255 23.38394667 8.34323528 23.60342248 11.125 23.6875 C11.87910156 23.72166016 12.63320313 23.75582031 13.41015625 23.79101562 C15.27291201 23.87354278 17.13643326 23.93844711 19 24 C19.495 25.485 19.495 25.485 20 27 C14.72 27 9.44 27 4 27 C5.24967221 33.2116083 5.24967221 33.2116083 9 37 C12.10839021 37.7269226 12.10839021 37.7269226 15 38 C15 38.66 15 39.32 15 40 C13.68 40 12.36 40 11 40 C11 63.43 11 86.86 11 111 C10.67 111 10.34 111 10 111 C10 87.57 10 64.14 10 40 C8.35 39.67 6.7 39.34 5 39 C4.01 38.38125 4.01 38.38125 3 37.75 C2.34 37.5025 1.68 37.255 1 37 C-0.11375 37.680625 -0.11375 37.680625 -1.25 38.375 C-5.05041968 40.62070254 -7.63354083 40.22202335 -12 40 C-12.33 39.34 -12.66 38.68 -13 38 C-12.09507812 37.99613281 -12.09507812 37.99613281 -11.171875 37.9921875 C-5.61184866 37.74548628 -5.61184866 37.74548628 -1.4375 34.1875 C0.27407184 30.97505053 0.27407184 30.97505053 0 27 C-4.95 26.67 -9.9 26.34 -15 26 C-15 25.67 -15 25.34 -15 25 C-10.38 25 -5.76 25 -1 25 C-4.47265128 18.55079048 -8.02061409 12.21055434 -11.8984375 5.99609375 C-13 4 -13 4 -13 2 C-17.29 2 -21.58 2 -26 2 C-26 1.67 -26 1.34 -26 1 C-17.30019136 -0.01286753 -8.74507107 -0.10621544 0 0 Z " fill="#575349" transform="translate(428,276)"/>
<path d="M0 0 C10.05859375 -0.09765625 10.05859375 -0.09765625 13 0 C14.55077881 1.55077881 14.53470043 3.30366095 14.9375 5.4375 C15.10894531 6.33082031 15.28039062 7.22414063 15.45703125 8.14453125 C15.72580078 9.55798828 15.72580078 9.55798828 16 11 C16.37304769 12.87538941 16.74794318 14.75041254 17.125 16.625 C17.558125 18.790625 17.558125 18.790625 18 21 C12.06 21 6.12 21 0 21 C0 14.07 0 7.14 0 0 Z " fill="#EDE6CB" transform="translate(369,279)"/>
<path d="M0 0 C4.29 0 8.58 0 13 0 C13 6.93 13 13.86 13 21 C7.39 21 1.78 21 -4 21 C-4 19.02 -4 17.04 -4 15 C-3.34 15 -2.68 15 -2 15 C-1.93941406 14.25234375 -1.87882812 13.5046875 -1.81640625 12.734375 C-1.73261719 11.74953125 -1.64882813 10.7646875 -1.5625 9.75 C-1.48128906 8.77546875 -1.40007812 7.8009375 -1.31640625 6.796875 C-1 4 -1 4 0 0 Z " fill="#949454" transform="translate(353,279)"/>
<path d="M0 0 C4.29 0 8.58 0 13 0 C12.50170023 7.22534669 11.75582841 13.97668635 10 21 C4.39 21 -1.22 21 -7 21 C-4.66666667 14 -2.33333333 7 0 0 Z " fill="#969554" transform="translate(336,279)"/>
<path d="M0 0 C4.55773966 -0.81288954 8.47860612 -1.11741542 13 0 C16.65486964 3.91352195 18.69774972 8.16300618 21 13 C21.56460937 13.90363281 22.12921875 14.80726563 22.7109375 15.73828125 C24 18 24 18 24 21 C18.72 21 13.44 21 8 21 C7.05125 18.64875 6.1025 16.2975 5.125 13.875 C4.82996582 13.14651855 4.53493164 12.41803711 4.23095703 11.66748047 C2.6841283 7.8165976 1.26872494 3.95398742 0 0 Z " fill="#F1E7CD" transform="translate(402,279)"/>
<path d="M0 0 C1.65322266 0.01740234 1.65322266 0.01740234 3.33984375 0.03515625 C4.44457031 0.04417969 5.54929687 0.05320312 6.6875 0.0625 C7.54214844 0.07410156 8.39679688 0.08570313 9.27734375 0.09765625 C7.30487834 7.49039246 4.55657541 14.1846814 1.27734375 21.09765625 C-4.00265625 21.09765625 -9.28265625 21.09765625 -14.72265625 21.09765625 C-12.47197464 14.34561142 -12.47197464 14.34561142 -10.59375 11.484375 C-10.19865234 10.87658203 -9.80355469 10.26878906 -9.39648438 9.64257812 C-8.98849609 9.02962891 -8.58050781 8.41667969 -8.16015625 7.78515625 C-7.74830078 7.15287109 -7.33644531 6.52058594 -6.91210938 5.86914062 C-3.14235689 0.11271008 -3.14235689 0.11271008 0 0 Z " fill="#EFE9CE" transform="translate(323.72265625,278.90234375)"/>
<path d="M0 0 C4.29 0 8.58 0 13 0 C13.4125 1.32 13.825 2.64 14.25 4 C15.5557228 7.96714823 17.19292295 11.53567134 19.23046875 15.17578125 C20 17 20 17 20 21 C14.72 21 9.44 21 4 21 C1.75 15.375 1.75 15.375 1.3671875 12.01171875 C1.28339844 11.30595703 1.19960938 10.60019531 1.11328125 9.87304688 C1.03464844 9.15181641 0.95601563 8.43058594 0.875 7.6875 C0.78863281 6.94693359 0.70226562 6.20636719 0.61328125 5.44335938 C0.40265295 3.62961565 0.20047014 1.81489457 0 0 Z " fill="#949555" transform="translate(386,279)"/>
<path d="M0 0 C2.24993359 -0.02707139 4.49996095 -0.04642829 6.75 -0.0625 C8.00296875 -0.07410156 9.2559375 -0.08570313 10.546875 -0.09765625 C14 0 14 0 18 1 C18 18.49 18 35.98 18 54 C17.67 54 17.34 54 17 54 C16.505 44.595 16.505 44.595 16 35 C15.67 35 15.34 35 15 35 C15.07863281 33.98421875 15.15726562 32.9684375 15.23828125 31.921875 C15.59644555 24.15554094 15.59644555 24.15554094 12.69287109 17.17724609 C10.49670842 14.91748413 8.18971245 12.94999912 5.66137695 11.07128906 C2.28213951 8.51982143 1.0874705 7.37061853 0.09375 3.16015625 C0.0628125 2.11730469 0.031875 1.07445312 0 0 Z " fill="#625C55" transform="translate(277,401)"/>
<path d="M0 0 C4.15465958 -0.69244326 7.57722462 -1.00063324 11.1328125 1.5 C13.20919984 3.58453004 15.11617899 5.74018213 17 8 C18.27012917 9.43812221 19.54092952 10.87565202 20.8125 12.3125 C21.35519531 12.94800781 21.89789063 13.58351563 22.45703125 14.23828125 C23.97299439 16.02504065 23.97299439 16.02504065 25.69921875 17.60546875 C27 19 27 19 27 21 C13.75249229 22.36520118 13.75249229 22.36520118 9.87890625 19.34765625 C8.33700987 16.97004368 7.17059298 14.57985055 6 12 C4.89106607 10.17762606 3.76621582 8.36483396 2.625 6.5625 C0 2.26153846 0 2.26153846 0 0 Z " fill="#939254" transform="translate(419,279)"/>
<path d="M0 0 C1.32257813 0.08701172 1.32257813 0.08701172 2.671875 0.17578125 C3.56390625 0.22089844 4.4559375 0.26601563 5.375 0.3125 C6.05046875 0.37050781 6.7259375 0.42851562 7.421875 0.48828125 C3.421875 7.48828125 -0.578125 14.48828125 -4.578125 21.48828125 C-9.528125 21.48828125 -14.478125 21.48828125 -19.578125 21.48828125 C-17.58513229 17.50229583 -15.22306096 14.73363481 -12.203125 11.55078125 C-11.23543341 10.52228551 -10.26926521 9.49235416 -9.3046875 8.4609375 C-8.60279297 7.71807495 -8.60279297 7.71807495 -7.88671875 6.96020508 C-6.37983558 5.31991085 -6.37983558 5.31991085 -4.5546875 2.62890625 C-2.578125 0.48828125 -2.578125 0.48828125 0 0 Z " fill="#919252" transform="translate(309.578125,278.51171875)"/>
<path d="M0 0 C4.62 0 9.24 0 14 0 C14 2.97 14 5.94 14 9 C9.05 9 4.1 9 -1 9 C-1 14.61 -1 20.22 -1 26 C0.35996094 25.98839844 1.71992188 25.97679687 3.12109375 25.96484375 C4.8932278 25.95546738 6.66536333 25.94636702 8.4375 25.9375 C9.78424805 25.92493164 9.78424805 25.92493164 11.15820312 25.91210938 C12.01220703 25.90888672 12.86621094 25.90566406 13.74609375 25.90234375 C14.93223267 25.89448853 14.93223267 25.89448853 16.14233398 25.88647461 C18 26 18 26 19 27 C19.07179964 28.51928038 19.08392007 30.04167482 19.0625 31.5625 C19.05347656 32.38878906 19.04445313 33.21507812 19.03515625 34.06640625 C19.02355469 34.70449219 19.01195312 35.34257812 19 36 C18.67 36 18.34 36 18 36 C18 33.36 18 30.72 18 28 C16.72382813 28.01160156 15.44765625 28.02320313 14.1328125 28.03515625 C12.46354313 28.04453417 10.79427217 28.05363437 9.125 28.0625 C8.28324219 28.07087891 7.44148438 28.07925781 6.57421875 28.08789062 C5.76855469 28.09111328 4.96289062 28.09433594 4.1328125 28.09765625 C3.01737061 28.10551147 3.01737061 28.10551147 1.87939453 28.11352539 C0 28 0 28 -2 27 C-2.4140625 23.83984375 -2.4140625 23.83984375 -2.625 19.9375 C-2.69976562 18.64714844 -2.77453125 17.35679687 -2.8515625 16.02734375 C-2.90054687 15.02832031 -2.94953125 14.02929688 -3 13 C-3.99 14.485 -3.99 14.485 -5 16 C-5.66 16 -6.32 16 -7 16 C-6.814375 15.195625 -6.62875 14.39125 -6.4375 13.5625 C-6.293125 12.716875 -6.14875 11.87125 -6 11 C-6.33 10.67 -6.66 10.34 -7 10 C-7.04063832 8.33382885 -7.042721 6.66611905 -7 5 C-6.34 5 -5.68 5 -5 5 C-5 4.01 -5 3.02 -5 2 C-3.68 2 -2.36 2 -1 2 C-0.67 1.34 -0.34 0.68 0 0 Z " fill="#4D4D4A" transform="translate(285,198)"/>
<path d="M0 0 C5.94 0 11.88 0 18 0 C17.67 2.31 17.34 4.62 17 7 C18.32 7 19.64 7 21 7 C21.33 6.01 21.66 5.02 22 4 C25 7.75 25 7.75 25 10 C27.31 10.66 29.62 11.32 32 12 C32 12.33 32 12.66 32 13 C25.64948454 13.36637589 25.64948454 13.36637589 22.5625 11.625 C21 10 21 10 21 8 C20.51789063 8.3609375 20.03578125 8.721875 19.5390625 9.09375 C18.90742188 9.5578125 18.27578125 10.021875 17.625 10.5 C16.99851562 10.9640625 16.37203125 11.428125 15.7265625 11.90625 C14 13 14 13 12 13 C12 12.34 12 11.68 12 11 C11.278125 11.350625 10.55625 11.70125 9.8125 12.0625 C6.60222613 13.13259129 5.15785567 13.16342051 2 12 C0.125 10.4375 0.125 10.4375 -1 8 C-0.67 5.36 -0.34 2.72 0 0 Z " fill="#686457" transform="translate(286,303)"/>
<path d="M0 0 C7.59 0 15.18 0 23 0 C21.875 9 21.875 9 19.4375 13 C18.98246094 13.763125 18.52742188 14.52625 18.05859375 15.3125 C17.70925781 15.869375 17.35992187 16.42625 17 17 C14.10147635 15.68692628 12.01722783 14.27315362 9.765625 12.03125 C8.90517578 11.17466797 8.90517578 11.17466797 8.02734375 10.30078125 C7.44082031 9.70652344 6.85429687 9.11226563 6.25 8.5 C5.64800781 7.90574219 5.04601562 7.31148438 4.42578125 6.69921875 C3.85730469 6.12816406 3.28882813 5.55710937 2.703125 4.96875 C2.18395508 4.44732422 1.66478516 3.92589844 1.12988281 3.38867188 C0 2 0 2 0 0 Z " fill="#E2DFD5" transform="translate(399,464)"/>
<path d="M0 0 C0 7.59 0 15.18 0 23 C-4.30442383 20.84778808 -6.94149234 18.46001825 -10.3125 15.125 C-10.87517578 14.59519531 -11.43785156 14.06539063 -12.01757812 13.51953125 C-13.61328125 11.9453125 -13.61328125 11.9453125 -16 9 C-15.78100586 6.90869141 -15.78100586 6.90869141 -15 5 C-12.890625 3.515625 -12.890625 3.515625 -10.25 2.25 C-8.95835937 1.60804688 -8.95835937 1.60804688 -7.640625 0.953125 C-5 0 -5 0 0 0 Z " fill="#E3DBC6" transform="translate(392,434)"/>
<path d="M0 0 C0 7.26 0 14.52 0 22 C-7.92509363 22 -7.92509363 22 -11.3125 20.1875 C-12.29669922 19.68283203 -12.29669922 19.68283203 -13.30078125 19.16796875 C-15 18 -15 18 -17 15 C-14.54976242 12.49195282 -12.08852402 9.9949924 -9.625 7.5 C-8.57699219 6.42685547 -8.57699219 6.42685547 -7.5078125 5.33203125 C-6.8375 4.65527344 -6.1671875 3.97851562 -5.4765625 3.28125 C-4.85861816 2.65283203 -4.24067383 2.02441406 -3.60400391 1.37695312 C-2 0 -2 0 0 0 Z " fill="#EAE7E0" transform="translate(392,468)"/>
<path d="M0 0 C7.59 0 15.18 0 23 0 C21.15494804 3.69010391 20.21146881 4.93390823 17.1875 7.4375 C14.71921825 9.51228756 12.38543539 11.57874007 10.1875 13.9375 C8 16 8 16 5 16 C4.15149541 14.46663099 3.32185055 12.92281854 2.5 11.375 C2.0359375 10.51648438 1.571875 9.65796875 1.09375 8.7734375 C0 6 0 6 0 0 Z " fill="#E6E2D6" transform="translate(366,464)"/>
<path d="M0 0 C2.73412703 1.38911293 3.12916243 2.89534246 4.1875 5.734375 C4.52265625 6.59546875 4.8578125 7.4565625 5.203125 8.34375 C5.9375 10.984375 5.9375 10.984375 5.9375 15.984375 C-1.6525 15.984375 -9.2425 15.984375 -17.0625 15.984375 C-17.0625 15.324375 -17.0625 14.664375 -17.0625 13.984375 C-15.55859375 12.50390625 -15.55859375 12.50390625 -13.5 10.796875 C-9.9435768 7.80696169 -6.78639279 4.64429309 -3.703125 1.171875 C-2.0625 -0.015625 -2.0625 -0.015625 0 0 Z " fill="#E9E3D2" transform="translate(416.0625,445.015625)"/>
<path d="M0 0 C4.23940223 0.49067155 6.14489324 2.87191514 9 5.875 C12.45857078 9.50931738 12.45857078 9.50931738 16.3125 12.6953125 C16.869375 13.12585938 17.42625 13.55640625 18 14 C18 14.66 18 15.32 18 16 C10.41 16 2.82 16 -5 16 C-3.875 7 -3.875 7 -1.9375 3.5 C-1.57527344 2.8296875 -1.21304687 2.159375 -0.83984375 1.46875 C-0.56269531 0.9840625 -0.28554688 0.499375 0 0 Z " fill="#E7E0CC" transform="translate(371,445)"/>
<path d="M0 0 C4.32315817 2.16157909 6.89542609 4.56286285 10.25 7.9375 C10.80429687 8.47568359 11.35859375 9.01386719 11.9296875 9.56835938 C13.34883239 10.98575654 14.68141504 12.48860308 16 14 C16 14.99 16 15.98 16 17 C14.65767194 17.85227178 13.30034127 18.68093012 11.9375 19.5 C10.80634766 20.19609375 10.80634766 20.19609375 9.65234375 20.90625 C7 22 7 22 0 22 C0 14.74 0 7.48 0 0 Z " fill="#EBE9E2" transform="translate(396,468)"/>
<path d="M0 0 C0.66 0.33 1.32 0.66 2 1 C2.3979204 4.36423611 2.50912623 7.70990324 2.65625 11.09375 C2.7696875 12.0528125 2.883125 13.011875 3 14 C3.66 14.33 4.32 14.66 5 15 C5 15.99 5 16.98 5 18 C9.95 18 14.9 18 20 18 C19.67 18.66 19.34 19.32 19 20 C14.38 20 9.76 20 5 20 C5 20.99 5 21.98 5 23 C4.01 23.33 3.02 23.66 2 24 C1.67 31.59 1.34 39.18 1 47 C0.67 47 0.34 47 0 47 C0 39.41 0 31.82 0 24 C-3.91111499 26.34666899 -6.25434228 28.02567592 -9.3125 31.1875 C-10.00988281 31.90292969 -10.70726562 32.61835938 -11.42578125 33.35546875 C-11.94527344 33.89816406 -12.46476562 34.44085938 -13 35 C-13.99 34.67 -14.98 34.34 -16 34 C-15.38511719 33.41992188 -14.77023437 32.83984375 -14.13671875 32.2421875 C-13.32847656 31.46101563 -12.52023437 30.67984375 -11.6875 29.875 C-10.88699219 29.10929687 -10.08648437 28.34359375 -9.26171875 27.5546875 C-6.5132046 24.67152178 -6.5132046 24.67152178 -4 19 C-8.95 19 -13.9 19 -19 19 C-19 18.67 -19 18.34 -19 18 C-14.05 18 -9.1 18 -4 18 C-4.33 16.68 -4.66 15.36 -5 14 C-4.34 13.34 -3.68 12.68 -3 12 C-2.01 12.33 -1.02 12.66 0 13 C0 8.71 0 4.42 0 0 Z " fill="#4D4842" transform="translate(393,444)"/>
<path d="M0 0 C7.875 1.125 7.875 1.125 11.9375 3.0625 C13.09572266 3.60583984 13.09572266 3.60583984 14.27734375 4.16015625 C14.84582031 4.43730469 15.41429687 4.71445312 16 5 C16 8 16 8 14.4609375 9.578125 C13.77257812 10.12984375 13.08421875 10.6815625 12.375 11.25 C8.89241403 14.14598018 6.02345432 17.16013487 3.2265625 20.71484375 C2.82179688 21.13894531 2.41703125 21.56304687 2 22 C1.34 22 0.68 22 0 22 C0 14.74 0 7.48 0 0 Z " fill="#E9DEC7" transform="translate(396,435)"/>
<path d="M0 0 C2.64 0 5.28 0 8 0 C8 1.98 8 3.96 8 6 C7.67 6 7.34 6 7 6 C7 4.35 7 2.7 7 1 C5.35 1 3.7 1 2 1 C3.26974972 5.41522109 3.26974972 5.41522109 6 9 C5.38125 9.04125 4.7625 9.0825 4.125 9.125 C3.42375 9.41375 2.7225 9.7025 2 10 C0.84164327 12.97503122 0.84164327 12.97503122 0 16 C-2.50665006 17.25332503 -4.45274156 17.1787513 -7.25 17.3125 C-12.2271259 17.72238096 -15.08503466 18.75344338 -19 22 C-21.59649507 23.98555505 -24.0296692 25.62091784 -27 27 C-25.45481238 21.16262453 -21.03884331 17.80769138 -16.0234375 14.82421875 C-14 14 -14 14 -10 14 C-10 12.68 -10 11.36 -10 10 C-10.99 10 -11.98 10 -13 10 C-13 8.68 -13 7.36 -13 6 C-10.03 6 -7.06 6 -4 6 C-4 6.99 -4 7.98 -4 9 C-4.66 9 -5.32 9 -6 9 C-6 10.32 -6 11.64 -6 13 C-5.01 12.67 -4.02 12.34 -3 12 C-2.26676204 9.98491642 -2.26676204 9.98491642 -2 8 C-1.34 8 -0.68 8 0 8 C0 5.36 0 2.72 0 0 Z " fill="#676456" transform="translate(413,341)"/>
<path d="M0 0 C3.96 0 7.92 0 12 0 C11.06194224 3.75223103 9.84103036 7.1512042 8.4375 10.75 C7.98246094 11.92046875 7.52742188 13.0909375 7.05859375 14.296875 C6.70925781 15.18890625 6.35992187 16.0809375 6 17 C2.37 17 -1.26 17 -5 17 C-4.20514017 13.02570087 -3.23700354 9.50217167 -1.9375 5.6875 C-1.57527344 4.61886719 -1.21304687 3.55023438 -0.83984375 2.44921875 C-0.56269531 1.64097656 -0.28554688 0.83273437 0 0 Z " fill="#EAE4D2" transform="translate(356,365)"/>
<path d="M0 0 C0.495 0.99 0.495 0.99 1 2 C-0.03898437 2.08636719 -1.07796875 2.17273438 -2.1484375 2.26171875 C-15.8326897 3.56505913 -25.60446565 7.40290531 -35 18 C-36.58141341 20.5591491 -37.87114055 23.07653877 -39.0625 25.8359375 C-40 28 -40 28 -42 31 C-42.33 30.34 -42.66 29.68 -43 29 C-43.66 29.33 -44.32 29.66 -45 30 C-41.95435956 18.45862571 -34.90326378 10.16465637 -24.92578125 3.64453125 C-17.07070349 -0.63023602 -8.7027857 -0.14397991 0 0 Z " fill="#5D564F" transform="translate(398,421)"/>
<path d="M0 0 C2.375 1.0625 2.375 1.0625 4 3 C4.56988508 6.91795996 4.59460908 9.07240983 2.4375 12.4375 C-0.92759017 14.59460908 -3.08204004 14.56988508 -7 14 C-9.62541413 11.79803976 -9.9445448 10.38026421 -10.4375 7 C-10 4 -10 4 -8.375 1.625 C-5.30522452 -0.4753727 -3.65443439 -0.53293835 0 0 Z " fill="#E4E3DF" transform="translate(302,477)"/>
<path d="M0 0 C1.32 0 2.64 0 4 0 C3.67 24.42 3.34 48.84 3 74 C2.01 74.495 2.01 74.495 1 75 C1 50.91 1 26.82 1 2 C0.34 1.67 -0.32 1.34 -1 1 C-0.67 0.67 -0.34 0.34 0 0 Z " fill="#4F4B44" transform="translate(294,314)"/>
<path d="M0 0 C3.96 0 7.92 0 12 0 C11 10.71428571 11 10.71428571 10 15 C7.03 15 4.06 15 1 15 C0.67 10.05 0.34 5.1 0 0 Z " fill="#909057" transform="translate(307,373)"/>
<path d="M0 0 C5.94 0 11.88 0 18 0 C17 6 17 6 15.375 8.375 C12.08996338 10.62265664 9.90400027 10.41828574 6 10 C3.28366809 9.11902749 2.33120435 8.49680653 0.75 6.125 C0 4 0 4 0 0 Z " fill="#8D8D54" transform="translate(369,303)"/>
<path d="M0 0 C5.94 0 11.88 0 18 0 C17 6 17 6 14.9375 8.375 C10.7776665 10.67618449 8.72281304 10.74965286 4 10 C0.76995909 6.446955 0 4.83406485 0 0 Z " fill="#E9E4CF" transform="translate(307,303)"/>
<path d="M0 0 C5.61 0 11.22 0 17 0 C16 7 16 7 14.375 8.9375 C11.02317947 10.43699866 8.63019782 10.45377473 5 10 C2.625 8.375 2.625 8.375 1 6 C0.67 4.02 0.34 2.04 0 0 Z " fill="#939355" transform="translate(328,303)"/>
<path d="M0 0 C5.61 0 11.22 0 17 0 C17 5 17 5 15.4375 7.25 C12.20944403 9.56757865 9.95662627 9.9305855 6 10 C3.125 9 3.125 9 1 7 C0.67 4.69 0.34 2.38 0 0 Z " fill="#EAE5CA" transform="translate(349,303)"/>
<path d="M0 0 C4.95 0 9.9 0 15 0 C15 2.64 15 5.28 15 8 C14.67 8 14.34 8 14 8 C14 5.69 14 3.38 14 1 C10.37 1 6.74 1 3 1 C3 1.66 3 2.32 3 3 C5.97 3 8.94 3 12 3 C12 6.3 12 9.6 12 13 C9.03 13 6.06 13 3 13 C2.67 11.02 2.34 9.04 2 7 C1.67 9.31 1.34 11.62 1 14 C-0.98 14 -2.96 14 -5 14 C-5 13.67 -5 13.34 -5 13 C-3.35 13 -1.7 13 0 13 C0 8.71 0 4.42 0 0 Z " fill="#A5A365" transform="translate(325,375)"/>
<path d="M0 0 C0.66 0.33 1.32 0.66 2 1 C2.64922168 3.38842104 3.17125765 5.69886743 3.625 8.125 C3.7590625 8.77726563 3.893125 9.42953125 4.03125 10.1015625 C4.87749404 14.45367469 5.12645435 18.57409775 5 23 C2.03 23 -0.94 23 -4 23 C-4.19402835 17.47019212 -3.64861989 13.33377022 -2 8 C-1.66140041 5.66742506 -1.3267961 3.33425788 -1 1 C-0.67 0.67 -0.34 0.34 0 0 Z " fill="#D4D2CD" transform="translate(200,189)"/>
<path d="M0 0 C5.28 0 10.56 0 16 0 C15 6 15 6 13.4375 7.875 C9.68800301 9.60553707 7.12544186 9.45838243 3 9 C1 7.3125 1 7.3125 0 5 C0 3.35 0 1.7 0 0 Z " fill="#989856" transform="translate(391,304)"/>
<path d="M0 0 C3.3 0 6.6 0 10 0 C10.16276042 1.98567708 10.32552083 3.97135417 10.48828125 5.95703125 C10.81393847 8.09386811 10.81393847 8.09386811 12.51367188 9.29492188 C14.58043795 11.66586377 14.34449735 13.21532664 14.29296875 16.32421875 C14.28330078 17.35224609 14.27363281 18.38027344 14.26367188 19.43945312 C14.23853516 20.51130859 14.21339844 21.58316406 14.1875 22.6875 C14.17396484 23.77095703 14.16042969 24.85441406 14.14648438 25.97070312 C14.11110643 28.64763405 14.06174189 31.32356838 14 34 C13.67 34 13.34 34 13 34 C13 26.74 13 19.48 13 12 C12.34 12 11.68 12 11 12 C11 19.26 11 26.52 11 34 C10.67 34 10.34 34 10 34 C10 26.41 10 18.82 10 11 C7.69 11 5.38 11 3 11 C3.66 10.34 4.32 9.68 5 9 C4.34 8.34 3.68 7.68 3 7 C2.875 4.375 2.875 4.375 3 2 C4.2065625 2.0309375 4.2065625 2.0309375 5.4375 2.0625 C7.93354885 2.29633621 7.93354885 2.29633621 9 1 C6.36 1 3.72 1 1 1 C1 3.64 1 6.28 1 9 C0.67 9 0.34 9 0 9 C0 6.03 0 3.06 0 0 Z " fill="#7C7868" transform="translate(412,340)"/>
<path d="M0 0 C5.28 0 10.56 0 16 0 C15 6 15 6 13.4375 7.875 C9.68800301 9.60553707 7.12544186 9.45838243 3 9 C1 7.3125 1 7.3125 0 5 C0 3.35 0 1.7 0 0 Z " fill="#EFEAD2" transform="translate(412,304)"/>
<path d="M0 0 C5.28 0 10.56 0 16 0 C16 5 16 5 14.5 7.3125 C11.46170269 9.36335069 9.5173523 9.63893379 5.90625 9.45703125 C4 9 4 9 1.5 6.75 C0 4 0 4 0 0 Z " fill="#969355" transform="translate(287,304)"/>
<path d="M0 0 C5.28 0 10.56 0 16 0 C15 6 15 6 13.9375 7.875 C10.75356718 9.72373519 7.51172664 9.76311162 4 9 C1.5 6.75 1.5 6.75 0 4 C0 2.68 0 1.36 0 0 Z " fill="#939456" transform="translate(432,304)"/>
<path d="M0 0 C2.52212179 1.5550337 2.94178945 3.33913604 3.79296875 6.10546875 C2.43562888 7.45677599 1.05622237 8.78594055 -0.33203125 10.10546875 C-1.48058594 11.21921875 -1.48058594 11.21921875 -2.65234375 12.35546875 C-5.74166752 14.47170277 -7.53867199 14.44572236 -11.20703125 14.10546875 C-12 12.4375 -12 12.4375 -12.20703125 10.10546875 C-10.2578125 7.4921875 -10.2578125 7.4921875 -7.51953125 4.79296875 C-6.62878906 3.88933594 -5.73804688 2.98570312 -4.8203125 2.0546875 C-2.20703125 0.10546875 -2.20703125 0.10546875 0 0 Z " fill="#444440" transform="translate(527.20703125,154.89453125)"/>
<path d="M0 0 C2.72039409 2.72039409 2.84801128 5.06490287 3.625 8.8125 C3.88539063 10.03582031 4.14578125 11.25914062 4.4140625 12.51953125 C4.90702404 15.4477228 5.12382257 18.04514312 5 21 C2.36 21 -0.28 21 -3 21 C-3.43230491 13.65081658 -1.81774185 7.09784913 0 0 Z " fill="#DEDDD9" transform="translate(438,190)"/>
<path d="M0 0 C0 0.33 0 0.66 0 1 C-1.12535156 0.82984375 -1.12535156 0.82984375 -2.2734375 0.65625 C-6.0322456 0.46688939 -8.45899795 0.64767842 -12 2 C-15.9148076 6.04975706 -18.41978785 11.23291271 -21.00830078 16.18603516 C-22.155058 18.28362407 -23.48321593 20.15369096 -25 22 C-26.234375 20.41015625 -26.234375 20.41015625 -27 18 C-25.85637577 15.58936051 -24.73292266 13.62014611 -23.25 11.4375 C-22.87617188 10.86064453 -22.50234375 10.28378906 -22.1171875 9.68945312 C-21.09367572 8.11607597 -20.04771757 6.55736314 -19 5 C-18.34 4.01 -17.68 3.02 -17 2 C-19.64 1.67 -22.28 1.34 -25 1 C-25 0.67 -25 0.34 -25 0 C-16.53095523 -1.29526567 -8.49208584 -0.73598077 0 0 Z " fill="#635D4F" transform="translate(333,278)"/>
<path d="M0 0 C0.66 0.33 1.32 0.66 2 1 C1.34 1.66 0.68 2.32 0 3 C0 3.99 0 4.98 0 6 C-1.7578125 7.98046875 -1.7578125 7.98046875 -4.125 10.1875 C-7.82520169 13.73643558 -10.87044292 17.30566438 -13.7109375 21.56640625 C-14.13632812 22.03949219 -14.56171875 22.51257813 -15 23 C-17 23 -19 23 -21 23 C-6.39988688 6.19343891 -6.39988688 6.19343891 0 0 Z " fill="#605C52" transform="translate(305,277)"/>
<path d="M0 0 C1.52299523 2.93720508 2.80100302 5.9168649 4 9 C6.64 9.33 9.28 9.66 12 10 C12 10.33 12 10.66 12 11 C3.80743982 12.45295405 3.80743982 12.45295405 0.4375 10.5625 C-0.036875 10.046875 -0.51125 9.53125 -1 9 C-1.845625 9.825 -2.69125 10.65 -3.5625 11.5 C-6.32453135 13.84014589 -7.00048191 14.00003886 -10.875 14.3125 C-11.90625 14.209375 -12.9375 14.10625 -14 14 C-13.34 13.34 -12.68 12.68 -12 12 C-12.66 11.34 -13.32 10.68 -14 10 C-12.783125 9.773125 -11.56625 9.54625 -10.3125 9.3125 C-6.02920697 8.24927123 -3.7995683 6.47825152 -1 3 C-0.67 2.01 -0.34 1.02 0 0 Z " fill="#625D50" transform="translate(327,303)"/>
<path d="M0 0 C7.24438182 2.03313522 7.24438182 2.03313522 9.89453125 5.4296875 C9.89453125 6.4196875 9.89453125 7.4096875 9.89453125 8.4296875 C5.89453125 7.09635417 1.89453125 5.76302083 -2.10546875 4.4296875 C-4.49801451 4.20408074 -6.89474998 4.02120155 -9.29296875 3.8671875 C-10.56527344 3.78339844 -11.83757812 3.69960938 -13.1484375 3.61328125 C-14.12425781 3.55269531 -15.10007812 3.49210937 -16.10546875 3.4296875 C-16.10546875 3.0996875 -16.10546875 2.7696875 -16.10546875 2.4296875 C-12.80546875 2.0996875 -9.50546875 1.7696875 -6.10546875 1.4296875 C-11.05546875 1.4296875 -16.00546875 1.4296875 -21.10546875 1.4296875 C-15.41002319 -2.36727621 -6.57768631 -1.20797761 0 0 Z " fill="#756C60" transform="translate(404.10546875,420.5703125)"/>
<path d="M0 0 C3.96 0 7.92 0 12 0 C12 3.96 12 7.92 12 12 C2.76923077 5.23076923 2.76923077 5.23076923 0 2 C0 1.34 0 0.68 0 0 Z " fill="#DEDDDA" transform="translate(279,402)"/>
<path d="M0 0 C5.28 0.33 10.56 0.66 16 1 C16 3.97 16 6.94 16 10 C11.05 10.33 6.1 10.66 1 11 C0.67 15.62 0.34 20.24 0 25 C-0.33 25 -0.66 25 -1 25 C-1.33 21.37 -1.66 17.74 -2 14 C-2.66 14 -3.32 14 -4 14 C-4 14.66 -4 15.32 -4 16 C-4.66 16 -5.32 16 -6 16 C-6 14.35 -6 12.7 -6 11 C-5.34 10.67 -4.68 10.34 -4 10 C-4.33 9.01 -4.66 8.02 -5 7 C-4.13036621 7.23771118 -4.13036621 7.23771118 -3.24316406 7.48022461 C0.21220398 8.28088618 3.71910303 8.37223082 7.25 8.5625 C7.99507812 8.60568359 8.74015625 8.64886719 9.5078125 8.69335938 C11.338349 8.79896725 13.16915176 8.89994201 15 9 C15 6.69 15 4.38 15 2 C10.05 2 5.1 2 0 2 C0 1.34 0 0.68 0 0 Z " fill="#4B4A46" transform="translate(515,197)"/>
<path d="M0 0 C1.98 0 3.96 0 6 0 C6 0.66 6 1.32 6 2 C4.68 2 3.36 2 2 2 C2 25.43 2 48.86 2 73 C1.67 73 1.34 73 1 73 C0.67 48.91 0.34 24.82 0 0 Z " fill="#4C4742" transform="translate(437,314)"/>
<path d="M0 0 C1.11853298 2.79968136 1.03247339 3.90856514 0.00390625 6.8046875 C-0.47175781 7.81789063 -0.94742187 8.83109375 -1.4375 9.875 C-3.03986778 13.28930955 -4.00450752 15.4629608 -3.97265625 19.2578125 C-3.98167969 20.16273438 -3.99070312 21.06765625 -4 22 C-7.42094242 24.28062828 -8.68187222 24.21925007 -12.6875 24.125 C-14.17830078 24.09792969 -14.17830078 24.09792969 -15.69921875 24.0703125 C-16.45847656 24.04710937 -17.21773438 24.02390625 -18 24 C-18 23.67 -18 23.34 -18 23 C-14.04 22.34 -10.08 21.68 -6 21 C-6.69302969 16.39467611 -6.69302969 16.39467611 -8 14 C-7.109375 10.99609375 -7.109375 10.99609375 -5.75 7.4375 C-5.31171875 6.26058594 -4.8734375 5.08367187 -4.421875 3.87109375 C-3.95265625 2.92363281 -3.4834375 1.97617187 -3 1 C-2.01 0.67 -1.02 0.34 0 0 Z " fill="#6E6962" transform="translate(371,363)"/>
<path d="M0 0 C15.84 0 31.68 0 48 0 C48 0.33 48 0.66 48 1 C43.05 1.33 38.1 1.66 33 2 C32.67 3.98 32.34 5.96 32 8 C31.67 8 31.34 8 31 8 C31 5.69 31 3.38 31 1 C26.38 1 21.76 1 17 1 C16.896875 2.11375 16.79375 3.2275 16.6875 4.375 C16.460625 5.57125 16.23375 6.7675 16 8 C15.01 8.66 14.02 9.32 13 10 C13.33 7.03 13.66 4.06 14 1 C9.38 1 4.76 1 0 1 C0 0.67 0 0.34 0 0 Z " fill="#4B493F" transform="translate(336,277)"/>
<path d="M0 0 C5.94 0 11.88 0 18 0 C17.34 5.94 16.68 11.88 16 18 C15.67 18 15.34 18 15 18 C14.8029398 16.43867691 14.61779845 14.87584736 14.4375 13.3125 C14.33308594 12.44238281 14.22867187 11.57226562 14.12109375 10.67578125 C14 8 14 8 15 3 C11.04 3 7.08 3 3 3 C2.67 3.99 2.34 4.98 2 6 C1.67 4.35 1.34 2.7 1 1 C1 3.97 1 6.94 1 10 C0.67 10 0.34 10 0 10 C0 6.7 0 3.4 0 0 Z " fill="#615D54" transform="translate(304,370)"/>
<path d="M0 0 C1 3 1 3 -1 10 C10.22 10.33 21.44 10.66 33 11 C33 11.33 33 11.66 33 12 C19.47 12 5.94 12 -8 12 C-8 11.67 -8 11.34 -8 11 C-6.35 10.67 -4.7 10.34 -3 10 C-3.061875 8.906875 -3.12375 7.81375 -3.1875 6.6875 C-3 3 -3 3 -1.5 1.0625 C-1.005 0.711875 -0.51 0.36125 0 0 Z " fill="#4B4940" transform="translate(389,365)"/>
<path d="M0 0 C0.33 0 0.66 0 1 0 C1 1.98 1 3.96 1 6 C5.62 6 10.24 6 15 6 C13 8 13 8 9.7421875 8.1953125 C8.46601563 8.17210937 7.18984375 8.14890625 5.875 8.125 C3.95300781 8.09792969 3.95300781 8.09792969 1.9921875 8.0703125 C0.51105469 8.03550781 0.51105469 8.03550781 -1 8 C-1.33 9.32 -1.66 10.64 -2 12 C-2.17273438 11.35546875 -2.34546875 10.7109375 -2.5234375 10.046875 C-3.92982628 7.59554118 -3.92982628 7.59554118 -7.4765625 7.390625 C-8.858573 7.32418219 -10.2416781 7.2780748 -11.625 7.25 C-12.33140625 7.22035156 -13.0378125 7.19070313 -13.765625 7.16015625 C-15.50980047 7.08944643 -17.25490827 7.04245965 -19 7 C-19 6.67 -19 6.34 -19 6 C-10.585 5.505 -10.585 5.505 -2 5 C-1.34 3.35 -0.68 1.7 0 0 Z " fill="#4F4A43" transform="translate(328,295)"/>
<path d="M0 0 C4.95 0 9.9 0 15 0 C15 2.64 15 5.28 15 8 C14.67 8 14.34 8 14 8 C14 5.69 14 3.38 14 1 C10.37 1 6.74 1 3 1 C3 1.66 3 2.32 3 3 C5.97 3 8.94 3 12 3 C12 6.3 12 9.6 12 13 C11.67 13 11.34 13 11 13 C11 10.03 11 7.06 11 4 C8.36 4 5.72 4 3 4 C2.34 7.3 1.68 10.6 1 14 C-0.98 14 -2.96 14 -5 14 C-5 13.67 -5 13.34 -5 13 C-3.35 13 -1.7 13 0 13 C0 8.71 0 4.42 0 0 Z " fill="#7C7867" transform="translate(325,375)"/>
<path d="M0 0 C5.94 0 11.88 0 18 0 C17.67 1.32 17.34 2.64 17 4 C17 3.01 17 2.02 17 1 C11.72 1 6.44 1 1 1 C2.3134761 5.07726073 2.3134761 5.07726073 4 9 C7.3 9 10.6 9 14 9 C13.67 9.66 13.34 10.32 13 11 C10.35139573 11.59355614 7.70802678 11.74209269 5 12 C7.64 12.33 10.28 12.66 13 13 C13 13.33 13 13.66 13 14 C9.89441326 14.43478214 7.09038203 14.59797636 4 14 C1.5001159 11.9849419 -0.25532743 9.68200647 -2 7 C-1.34 7 -0.68 7 0 7 C0 4.69 0 2.38 0 0 Z " fill="#928C80" transform="translate(411,303)"/>
<path d="M0 0 C3.59634744 3.49359465 6.83451967 7.11098131 10 11 C9.01 11.33 8.02 11.66 7 12 C6.51789063 11.50628906 6.03578125 11.01257813 5.5390625 10.50390625 C4.90742188 9.86324219 4.27578125 9.22257812 3.625 8.5625 C2.99851562 7.92441406 2.37203125 7.28632813 1.7265625 6.62890625 C0.08276939 4.92117824 0.08276939 4.92117824 -2 4 C-2 11.26 -2 18.52 -2 26 C-0.35 26 1.3 26 3 26 C3 26.33 3 26.66 3 27 C1.02 27 -0.96 27 -3 27 C-3 19.08 -3 11.16 -3 3 C-2.01 3 -1.02 3 0 3 C0 2.01 0 1.02 0 0 Z " fill="#726E67" transform="translate(398,464)"/>
<path d="M0 0 C0.66 0 1.32 0 2 0 C2 1.65 2 3.3 2 5 C5.63 5 9.26 5 13 5 C13.66 3.68 14.32 2.36 15 1 C15.33 1 15.66 1 16 1 C16 2.98 16 4.96 16 7 C11.75448144 8.09587955 8.0407161 7.92865836 3.6875 7.5625 C2.43324219 7.46066406 1.17898438 7.35882813 -0.11328125 7.25390625 C-1.06589844 7.17011719 -2.01851563 7.08632813 -3 7 C-2.25 2.25 -2.25 2.25 0 0 Z " fill="#5C5952" transform="translate(349,377)"/>
<path d="M0 0 C-0.33 0.99 -0.66 1.98 -1 3 C-3.64 3 -6.28 3 -9 3 C-8.67 4.32 -8.34 5.64 -8 7 C-9.32 6.67 -10.64 6.34 -12 6 C-12.33 4.68 -12.66 3.36 -13 2 C-17.29 2 -21.58 2 -26 2 C-26 1.67 -26 1.34 -26 1 C-17.30019136 -0.01286753 -8.74507107 -0.10621544 0 0 Z " fill="#4D4A43" transform="translate(428,276)"/>
<path d="M0 0 C5.61 0 11.22 0 17 0 C17 0.33 17 0.66 17 1 C11.72 1 6.44 1 1 1 C2.20678321 7.36866419 2.20678321 7.36866419 4 9 C5.68608966 9.07205511 7.37500659 9.08386068 9.0625 9.0625 C9.98160156 9.05347656 10.90070313 9.04445313 11.84765625 9.03515625 C12.55792969 9.02355469 13.26820313 9.01195312 14 9 C13.67 9.66 13.34 10.32 13 11 C10.35139573 11.59355614 7.70802678 11.74209269 5 12 C7.64 12.33 10.28 12.66 13 13 C13 13.33 13 13.66 13 14 C9.89441326 14.43478214 7.09038203 14.59797636 4 14 C1.5001159 11.9849419 -0.25532743 9.68200647 -2 7 C-1.34 7 -0.68 7 0 7 C0 4.69 0 2.38 0 0 Z " fill="#77745C" transform="translate(390,303)"/>
<path d="M0 0 C2.77042109 2.77042109 2.39796106 4.76533805 2.625 8.625 C2.69976562 9.81351563 2.77453125 11.00203125 2.8515625 12.2265625 C2.92503906 13.59941406 2.92503906 13.59941406 3 15 C1.02 15 -0.96 15 -3 15 C-2.44854729 9.76119922 -1.57077907 5.02649303 0 0 Z " fill="#E8E7D8" transform="translate(324,540)"/>
<path d="M0 0 C0.33 0 0.66 0 1 0 C1 1.65 1 3.3 1 5 C-0.98 5.99 -0.98 5.99 -3 7 C-3 7.66 -3 8.32 -3 9 C-4.43655854 9.08131463 -5.8744483 9.13933559 -7.3125 9.1875 C-8.51326172 9.23970703 -8.51326172 9.23970703 -9.73828125 9.29296875 C-12.47851584 8.93801608 -13.29171079 8.10633718 -15 6 C-13.68 6 -12.36 6 -11 6 C-11.33 5.34 -11.66 4.68 -12 4 C-10.9275 4.020625 -9.855 4.04125 -8.75 4.0625 C-4.75025837 4.06276474 -4.75025837 4.06276474 -1 3 C-0.67 2.01 -0.34 1.02 0 0 Z " fill="#605D55" transform="translate(365,308)"/>
<path d="M0 0 C0.33 0 0.66 0 1 0 C0.67 2.97 0.34 5.94 0 9 C-11.22 9 -22.44 9 -34 9 C-34 8.67 -34 8.34 -34 8 C-23.44 7.67 -12.88 7.34 -2 7 C-2 5.35 -2 3.7 -2 2 C-1.34 1.34 -0.68 0.68 0 0 Z " fill="#524E48" transform="translate(355,449)"/>
<path d="M0 0 C-2.98358251 2.42416079 -6.00586193 4.79395639 -9.0625 7.125 C-9.71347656 7.62257813 -10.36445313 8.12015625 -11.03515625 8.6328125 C-12.95804559 9.97080707 -14.88084764 11.0088597 -17 12 C-15.61613025 6.77204763 -12.24038711 4.05057385 -8 1 C-4.84724122 -0.8125411 -3.48218392 -1.24363712 0 0 Z " fill="#69655A" transform="translate(403,356)"/>
<path d="M0 0 C0.99 0.99 1.98 1.98 3 3 C2.57316761 4.58624235 2.13303842 6.1689098 1.6875 7.75 C1.44386719 8.63171875 1.20023437 9.5134375 0.94921875 10.421875 C-0.02125331 13.05772505 -1.21005644 14.85407326 -3 17 C-4.1484375 15.421875 -4.1484375 15.421875 -5 13 C-4.1015625 9.765625 -4.1015625 9.765625 -2.625 6.25 C-2.14289063 5.07953125 -1.66078125 3.9090625 -1.1640625 2.703125 C-0.77992188 1.81109375 -0.39578125 0.9190625 0 0 Z " fill="#5B5648" transform="translate(332,281)"/>
<path d="M0 0 C3.63 0 7.26 0 11 0 C11 3.96 11 7.92 11 12 C15.62 11.67 20.24 11.34 25 11 C25 11.66 25 12.32 25 13 C20.05 13 15.1 13 10 13 C9.67 9.37 9.34 5.74 9 2 C6.03 2 3.06 2 0 2 C0 1.34 0 0.68 0 0 Z " fill="#5F5A52" transform="translate(328,376)"/>
<path d="M0 0 C4.62 0 9.24 0 14 0 C14 0.99 14 1.98 14 3 C10.04 3 6.08 3 2 3 C1.67 5.64 1.34 8.28 1 11 C0.67 11 0.34 11 0 11 C0 7.37 0 3.74 0 0 Z " fill="#5B564E" transform="translate(280,388)"/>
<path d="M0 0 C3.79979982 3.25697128 6.48005185 7.22568435 8 12 C7.73046875 14.1875 7.73046875 14.1875 7 16 C6.34 16.33 5.68 16.66 5 17 C4.34865075 15.43979133 3.70417036 13.87671421 3.0625 12.3125 C2.70285156 11.44238281 2.34320313 10.57226562 1.97265625 9.67578125 C0.80605388 6.46645344 0 3.42536068 0 0 Z " fill="#675F54" transform="translate(426,435)"/>
<path d="M0 0 C2.64 0 5.28 0 8 0 C8 1.98 8 3.96 8 6 C7.67 6 7.34 6 7 6 C7 4.35 7 2.7 7 1 C5.35 1 3.7 1 2 1 C3.26974972 5.41522109 3.26974972 5.41522109 6 9 C5.360625 9.12375 4.72125 9.2475 4.0625 9.375 C3.381875 9.58125 2.70125 9.7875 2 10 C1.67 10.66 1.34 11.32 1 12 C0.01 12 -0.98 12 -2 12 C-2 10.68 -2 9.36 -2 8 C-1.34 8 -0.68 8 0 8 C0 5.36 0 2.72 0 0 Z " fill="#504C43" transform="translate(413,341)"/>
<path d="M0 0 C5.94 0 11.88 0 18 0 C18 1.65 18 3.3 18 5 C17.67 3.68 17.34 2.36 17 1 C11.72 1 6.44 1 1 1 C1.474375 2.2375 1.94875 3.475 2.4375 4.75 C3.48275034 7.47674001 4.33989524 10.15449988 5 13 C2.26210251 11.99610425 1.17768718 11.3046066 -0.3125 8.75 C-1 6 -1 6 0 0 Z " fill="#727052" transform="translate(286,303)"/>
<path d="M0 0 C-1.15173355 2.46800047 -2.04783565 4.04783565 -4 6 C-4.37268887 8.91188245 -4.37268887 8.91188245 -4.4140625 12.3203125 C-4.45273437 13.57714844 -4.49140625 14.83398438 -4.53125 16.12890625 C-4.5621875 17.44761719 -4.593125 18.76632812 -4.625 20.125 C-4.66318029 21.46486918 -4.70223206 22.80471383 -4.7421875 24.14453125 C-4.8367203 27.42954619 -4.92227156 30.71455138 -5 34 C-5.33 34 -5.66 34 -6 34 C-6.0992502 29.96166211 -6.17164562 25.92380128 -6.21972656 21.88452148 C-6.2397799 20.51199977 -6.26703028 19.13956283 -6.30175781 17.76733398 C-6.35054552 15.78927956 -6.37088876 13.81058881 -6.390625 11.83203125 C-6.41157227 10.64327393 -6.43251953 9.4545166 -6.45410156 8.22973633 C-5.92118622 4.43944755 -4.41531095 0 0 0 Z " fill="#A8A370" transform="translate(350,529)"/>
<path d="M0 0 C0.66 0.33 1.32 0.66 2 1 C1.49202991 5.3177458 0.80317221 9.03302114 -1 13 C-1.66 12.34 -2.32 11.68 -3 11 C-3.99 11.495 -3.99 11.495 -5 12 C-4.54738642 10.56068883 -4.08767021 9.12361001 -3.625 7.6875 C-3.24214844 6.48673828 -3.24214844 6.48673828 -2.8515625 5.26171875 C-2 3 -2 3 0 0 Z " fill="#69635A" transform="translate(358,439)"/>
<path d="M0 0 C0.33 1.32 0.66 2.64 1 4 C4.3 3.67 7.6 3.34 11 3 C10.01 2.34 9.02 1.68 8 1 C12.29 1 16.58 1 21 1 C21 1.66 21 2.32 21 3 C19.2984375 3.2165625 19.2984375 3.2165625 17.5625 3.4375 C14.19222799 3.61171478 14.19222799 3.61171478 13 5 C10.81360547 5.07258946 8.62499611 5.08373783 6.4375 5.0625 C4.64119141 5.04896484 4.64119141 5.04896484 2.80859375 5.03515625 C1.88175781 5.02355469 0.95492188 5.01195312 0 5 C0 3.35 0 1.7 0 0 Z " fill="#C0BDB6" transform="translate(339,383)"/>
<path d="M0 0 C0.33 0.66 0.66 1.32 1 2 C4.04581269 2.46954261 4.04581269 2.46954261 7.5625 2.625 C8.76003906 2.69976562 9.95757812 2.77453125 11.19140625 2.8515625 C12.11824219 2.90054687 13.04507812 2.94953125 14 3 C14 3.33 14 3.66 14 4 C9.05 4.33 4.1 4.66 -1 5 C-1.33 6.98 -1.66 8.96 -2 11 C-2.66 10.67 -3.32 10.34 -4 10 C-4.25 6.6875 -4.25 6.6875 -4 3 C-2 1.0625 -2 1.0625 0 0 Z " fill="#4B4840" transform="translate(288,298)"/>
<path d="M0 0 C0.66 0.33 1.32 0.66 2 1 C1.3503125 1.61488281 0.700625 2.22976563 0.03125 2.86328125 C-0.8040625 3.67152344 -1.639375 4.47976563 -2.5 5.3125 C-3.3353125 6.11300781 -4.170625 6.91351563 -5.03125 7.73828125 C-7.32828283 9.87737482 -7.32828283 9.87737482 -7 13 C-7.99 13.66 -8.98 14.32 -10 15 C-10.99 14.67 -11.98 14.34 -13 14 C-13 13.34 -13 12.68 -13 12 C-11.42578125 10.44921875 -11.42578125 10.44921875 -9.3125 8.6875 C-6.04699036 5.91500692 -2.98084015 3.07399141 0 0 Z " fill="#6B665F" transform="translate(385,468)"/>
<path d="M0 0 C0.33 0.66 0.66 1.32 1 2 C-0.66289062 2.19916016 -0.66289062 2.19916016 -2.359375 2.40234375 C-3.8229327 2.58059757 -5.28647349 2.75899028 -6.75 2.9375 C-7.47960937 3.02451172 -8.20921875 3.11152344 -8.9609375 3.20117188 C-12.37584442 3.62027409 -15.67603543 4.117274 -19 5 C-19 4.34 -19 3.68 -19 3 C-12.47059106 0.04328652 -7.12600133 -0.35368021 0 0 Z " fill="#4A4743" transform="translate(398,421)"/>
<path d="M0 0 C2.02350324 3.03525486 2.32124018 4.19426202 2.625 7.6875 C2.69976562 8.49574219 2.77453125 9.30398438 2.8515625 10.13671875 C2.92503906 11.05904297 2.92503906 11.05904297 3 12 C1.35 12 -0.3 12 -2 12 C-2 10.02 -2 8.04 -2 6 C-1.34 6 -0.68 6 0 6 C0 4.02 0 2.04 0 0 Z " fill="#E6E2D9" transform="translate(322,376)"/>
<path d="M0 0 C0 0.33 0 0.66 0 1 C-1.24716797 1.05607422 -1.24716797 1.05607422 -2.51953125 1.11328125 C-3.60621094 1.17902344 -4.69289063 1.24476563 -5.8125 1.3125 C-7.43091797 1.39951172 -7.43091797 1.39951172 -9.08203125 1.48828125 C-12.17497517 2.03068507 -13.13022903 2.55289624 -15 5 C-15.66 4.67 -16.32 4.34 -17 4 C-17 3.34 -17 2.68 -17 2 C-19.64 1.67 -22.28 1.34 -25 1 C-25 0.67 -25 0.34 -25 0 C-16.53095523 -1.29526567 -8.49208584 -0.73598077 0 0 Z " fill="#6E6A5B" transform="translate(333,278)"/>
<path d="M0 0 C0.33 0.99 0.66 1.98 1 3 C-1.25 6.1875 -1.25 6.1875 -4 9 C-6 9 -8 9 -10 9 C-7.34051718 5.35552354 -4.96548305 3.14350435 -1 1 C-0.67 0.67 -0.34 0.34 0 0 Z " fill="#5A574C" transform="translate(294,291)"/>
<path d="M0 0 C0.66 0.33 1.32 0.66 2 1 C2.4140625 3.28515625 2.4140625 3.28515625 2.625 6.0625 C2.69976562 6.98160156 2.77453125 7.90070313 2.8515625 8.84765625 C2.90054688 9.55792969 2.94953125 10.26820313 3 11 C2.01 10.34 1.02 9.68 0 9 C-0.66 9.99 -1.32 10.98 -2 12 C-1.85962479 10.18706911 -1.71255111 8.3746557 -1.5625 6.5625 C-1.48128906 5.55316406 -1.40007812 4.54382813 -1.31640625 3.50390625 C-1 1 -1 1 0 0 Z " fill="#BDBDBA" transform="translate(200,189)"/>
<path d="M0 0 C4.29 0 8.58 0 13 0 C13 0.99 13 1.98 13 3 C11.68 3.33 10.36 3.66 9 4 C9 3.34 9 2.68 9 2 C6.69 2.66 4.38 3.32 2 4 C1.34 2.68 0.68 1.36 0 0 Z " fill="#565448" transform="translate(289,312)"/>
<path d="M0 0 C1.55136786 2.46393719 2.03039129 3.68089146 1.75 6.625 C1 9 1 9 -1 11 C-3.42857143 4.71428571 -3.42857143 4.71428571 -2 1 C-1.67 1.33 -1.34 1.66 -1 2 C-0.67 1.34 -0.34 0.68 0 0 Z " fill="#6E6954" transform="translate(386,283)"/>
<path d="M0 0 C0.66 0 1.32 0 2 0 C5 4.38461538 5 4.38461538 5 7 C4.01 7 3.02 7 2 7 C2 7.66 2 8.32 2 9 C0.68 8.67 -0.64 8.34 -2 8 C-2 7.01 -2 6.02 -2 5 C-1.01 5 -0.02 5 1 5 C1.33 4.34 1.66 3.68 2 3 C1.34 3 0.68 3 0 3 C0 2.01 0 1.02 0 0 Z " fill="#4D4C47" transform="translate(319,184)"/>
<path d="M0 0 C0.66 0.33 1.32 0.66 2 1 C-1.3 4.3 -4.6 7.6 -8 11 C-8.33 10.34 -8.66 9.68 -9 9 C-8.06725891 7.87105124 -7.12859878 6.74699124 -6.1875 5.625 C-5.66542969 4.99851562 -5.14335937 4.37203125 -4.60546875 3.7265625 C-3 2 -3 2 0 0 Z " fill="#625E58" transform="translate(375,433)"/>
<path d="M0 0 C0.33 0 0.66 0 1 0 C1.33 1.65 1.66 3.3 2 5 C6.455 5.99 6.455 5.99 11 7 C11 7.33 11 7.66 11 8 C6.71 8 2.42 8 -2 8 C-1.34 5.36 -0.68 2.72 0 0 Z " fill="#4A453E" transform="translate(281,393)"/>
<path d="M0 0 C1 3 1 3 -0.25 5.6875 C-0.8275 6.450625 -1.405 7.21375 -2 8 C-2.99 8 -3.98 8 -5 8 C-4.64950425 4.75791433 -4.43778819 3.38472296 -1.9375 1.1875 C-1.298125 0.795625 -0.65875 0.40375 0 0 Z " fill="#5A554A" transform="translate(317,281)"/>
<path d="M0 0 C2.31 0.33 4.62 0.66 7 1 C6.01 1.66 5.02 2.32 4 3 C5.65 3.33 7.3 3.66 9 4 C9 4.33 9 4.66 9 5 C7.56344146 5.08131463 6.1255517 5.13933559 4.6875 5.1875 C3.48673828 5.23970703 3.48673828 5.23970703 2.26171875 5.29296875 C-0.47851584 4.93801608 -1.29171079 4.10633718 -3 2 C-1.68 2 -0.36 2 1 2 C0.67 1.34 0.34 0.68 0 0 Z " fill="#938F86" transform="translate(353,312)"/>
<path d="M0 0 C1.32 0.33 2.64 0.66 4 1 C4 1.66 4 2.32 4 3 C5.98 3 7.96 3 10 3 C10 3.66 10 4.32 10 5 C3.375 5.125 3.375 5.125 0 4 C0 2.68 0 1.36 0 0 Z " fill="#524F44" transform="translate(371,311)"/>
<path d="M0 0 C0.99 0.99 1.98 1.98 3 3 C2.34 5.31 1.68 7.62 1 10 C0.01 9.34 -0.98 8.68 -2 8 C-1.125 2.25 -1.125 2.25 0 0 Z " fill="#6D6753" transform="translate(332,281)"/>
<path d="M0 0 C0.66 1.32 1.32 2.64 2 4 C0.85546875 5.48828125 0.85546875 5.48828125 -1 7 C-3.69921875 7.29296875 -3.69921875 7.29296875 -6.6875 7.1875 C-7.68136719 7.16042969 -8.67523438 7.13335937 -9.69921875 7.10546875 C-10.45847656 7.07066406 -11.21773438 7.03585937 -12 7 C-12 6.67 -12 6.34 -12 6 C-8.04 5.34 -4.08 4.68 0 4 C0 2.68 0 1.36 0 0 Z " fill="#908E84" transform="translate(365,380)"/>
<path d="M0 0 C-0.33 1.32 -0.66 2.64 -1 4 C-3.31 4 -5.62 4 -8 4 C-7.34 3.34 -6.68 2.68 -6 2 C-6.66 1.34 -7.32 0.68 -8 0 C-2.25 -1.125 -2.25 -1.125 0 0 Z " fill="#817C74" transform="translate(321,313)"/>
<path d="M0 0 C3.72433382 1.2125738 7.37802806 2.50859979 11 4 C11 4.33 11 4.66 11 5 C4.64948454 5.36637589 4.64948454 5.36637589 1.5625 3.625 C0 2 0 2 0 0 Z " fill="#57524D" transform="translate(307,311)"/>
<path d="M0 0 C0.99 0 1.98 0 3 0 C3 0.99 3 1.98 3 3 C3.66 3 4.32 3 5 3 C5 3.66 5 4.32 5 5 C3.35 5.66 1.7 6.32 0 7 C-1.33332095 4.3333581 -0.67102033 2.83319697 0 0 Z " fill="#51504C" transform="translate(471,198)"/>
<path d="M0 0 C0.66 0.66 1.32 1.32 2 2 C1.69670231 5.84177074 0.47524576 8.09427672 -2 11 C-1.85892253 9.54119891 -1.71197585 8.08296449 -1.5625 6.625 C-1.48128906 5.81289062 -1.40007812 5.00078125 -1.31640625 4.1640625 C-1 2 -1 2 0 0 Z " fill="#CECFCE" transform="translate(438,190)"/>
<path d="M0 0 C2.25 1.9375 2.25 1.9375 4 4 C3.34 4 2.68 4 2 4 C1.67 4.66 1.34 5.32 1 6 C-0.65 4.35 -2.3 2.7 -4 1 C-2.25 0.25 -2.25 0.25 0 0 Z " fill="#676257" transform="translate(376,443)"/>
<path d="M0 0 C2 2 2 2 2.125 5.125 C2.08375 6.07375 2.0425 7.0225 2 8 C1.01 7.67 0.02 7.34 -1 7 C-1.04254356 5.00045254 -1.04080783 2.99958364 -1 1 C-0.67 0.67 -0.34 0.34 0 0 Z " fill="#DBDAC5" transform="translate(324,540)"/>
<path d="M0 0 C0.33 0 0.66 0 1 0 C1 1.98 1 3.96 1 6 C-0.65 6.33 -2.3 6.66 -4 7 C-4 6.34 -4 5.68 -4 5 C-3.34 5 -2.68 5 -2 5 C-1.7834375 4.0409375 -1.7834375 4.0409375 -1.5625 3.0625 C-1 1 -1 1 0 0 Z " fill="#524F47" transform="translate(364,378)"/>
<path d="M0 0 C0.66 0.66 1.32 1.32 2 2 C1.625 4.625 1.625 4.625 1 7 C0.01 7 -0.98 7 -2 7 C-2 5.68 -2 4.36 -2 3 C-1.34 3 -0.68 3 0 3 C0 2.01 0 1.02 0 0 Z " fill="#CAC9C2" transform="translate(409,347)"/>
<path d="M0 0 C2.6855594 2.6855594 3.06049974 5.37621328 4 9 C3.34 9 2.68 9 2 9 C2 8.01 2 7.02 2 6 C1.01 6.33 0.02 6.66 -1 7 C-0.67 4.69 -0.34 2.38 0 0 Z " fill="#7B7467" transform="translate(405,287)"/>
<path d="M0 0 C2.97 0.495 2.97 0.495 6 1 C6 2.32 6 3.64 6 5 C3.5625 4.1875 3.5625 4.1875 1 3 C0.67 2.01 0.34 1.02 0 0 Z " fill="#6A645D" transform="translate(408,424)"/>
<path d="M0 0 C0.33 0 0.66 0 1 0 C0.67 3.96 0.34 7.92 0 12 C-0.33 12 -0.66 12 -1 12 C-1.22162329 10.37675914 -1.42689803 8.751279 -1.625 7.125 C-1.74101562 6.22007812 -1.85703125 5.31515625 -1.9765625 4.3828125 C-1.98429687 3.59648437 -1.99203125 2.81015625 -2 2 C-1.34 1.34 -0.68 0.68 0 0 Z " fill="#635F55" transform="translate(320,376)"/>
<path d="M0 0 C0.66 0 1.32 0 2 0 C2 1.98 2 3.96 2 6 C1.01 6 0.02 6 -1 6 C-1.33 5.34 -1.66 4.68 -2 4 C-1.0625 1.875 -1.0625 1.875 0 0 Z " fill="#66615A" transform="translate(365,373)"/>
<path d="M0 0 C1.65 0 3.3 0 5 0 C5 1.65 5 3.3 5 5 C4.01 5.495 4.01 5.495 3 6 C2.67 5.01 2.34 4.02 2 3 C1.34 2.67 0.68 2.34 0 2 C0 1.34 0 0.68 0 0 Z " fill="#4D4A42" transform="translate(401,348)"/>
<path d="M0 0 C0.66 0 1.32 0 2 0 C2.33 1.98 2.66 3.96 3 6 C1.68 6 0.36 6 -1 6 C-0.67 4.02 -0.34 2.04 0 0 Z " fill="#4C4842" transform="translate(304,304)"/>
<path d="M0 0 C1.61949011 2.57213134 2.04408751 3.67669159 1.625 6.75 C1.41875 7.4925 1.2125 8.235 1 9 C-1.14809171 5.77786243 -1.29386153 4.72224599 -1 1 C-0.67 0.67 -0.34 0.34 0 0 Z " fill="#514E41" transform="translate(387,291)"/>
<path d="M0 0 C0.66 0 1.32 0 2 0 C0.47291037 3.43595166 -1.59927045 6.11912454 -4 9 C-3.4739075 5.21213403 -2.61896089 2.82847776 0 0 Z " fill="#B1AB7B" transform="translate(348,529)"/>
<path d="M0 0 C2.86724686 0.57344937 3.8614515 0.8614515 6 3 C5.01 3.66 4.02 4.32 3 5 C1.5 3.625 1.5 3.625 0 2 C0 1.34 0 0.68 0 0 Z " fill="#5E5851" transform="translate(413,426)"/>
<path d="M0 0 C0.33 0 0.66 0 1 0 C1 1.65 1 3.3 1 5 C-0.98 5.99 -0.98 5.99 -3 7 C-2.25 2.25 -2.25 2.25 0 0 Z " fill="#6D6861" transform="translate(323,309)"/>
<path d="M0 0 C0.99 0 1.98 0 3 0 C4.10844919 3.32534757 3.84454356 5.62182575 3 9 C2.67 9 2.34 9 2 9 C1.855625 8.2575 1.71125 7.515 1.5625 6.75 C1.09812508 4.47972261 0.58136431 2.24240521 0 0 Z " fill="#646246" transform="translate(348,285)"/>
</svg>
